<svg xmlns="http://www.w3.org/2000/svg" width="88.543" height="20.766"><path d="M15.293 15.926a.943.943 0 01-.951.934c-.525 0-.951-.418-.951-.934s.426-.934.951-.934a.944.944 0 01.951.934m-2.758-8.185H3.047l-.042.001h-.041l-.043.003h-.043l-.042.004-.042.004-.04.003-.041.003-.043.006-.042.007-.042.006-.041.006-.041.008-.041.007-.041.008-.041.009-.041.009-.042.01-.04.011-.041.011-.04.012-.04.012-.04.013-.039.013-.04.014-.039.014-.04.014-.038.016-.039.015-.039.017-.037.017-.038.017-.038.016-.038.019-.039.018-.037.02-.035.019-.037.02-.036.021-.038.021-.034.022-.036.02-.036.024-.034.024-.034.023-.036.024-.033.023-.034.025-.032.024-.034.027-.032.025-.033.027-.031.026-.032.028-.032.028-.029.028-.03.028-.031.029-.03.029-.028.031-.028.028-.03.03-.028.033-.027.03-.027.033-.027.03-.026.033-.026.033-.025.032-.026.034-.023.034-.023.032-.024.036-.024.035-.02.033-.022.036-.023.035-.019.037-.021.034-.02.036-.02.038-.018.038-.017.037-.018.038-.017.035-.016.04-.015.037-.017.038-.014.039-.014.039-.014.039-.013.038-.011.041-.012.04-.01.04-.011.039-.009.041-.01.04-.007.039-.009.042-.005.04-.007.04-.006.042-.005.041-.004.041-.003.041-.003.039-.002.042-.002.041-.001.042v3.046l.001.043.002.04.002.04.002.043.003.041.002.041.004.041.004.039.003.043.007.04.005.042.004.04.009.042.005.039.008.041.007.04.01.042.009.039.009.04.009.041.01.04.012.039.011.04.011.039.014.038.012.04.014.039.014.039.014.039.015.038.015.038.014.038.015.038.019.039.017.037.018.038.018.038.018.035.02.037.02.036.021.037.02.036.021.035.021.035.023.035.022.034.024.036.022.035.024.032.025.034.025.035.026.031.025.034.026.03.026.033.028.031.028.031.027.032.028.028.029.031.029.031.03.028.03.028.03.029.032.027.031.029.031.026.033.027.032.027.032.025.033.025.034.026.034.023.034.024.035.023.034.024.036.024.036.02.035.022.036.021.036.021.037.02.037.018.036.02.038.018.038.017.039.019.038.016.039.016.039.016.038.016.038.014.04.015.04.013.039.014.04.011.042.013.04.011.04.012.04.009.042.01.04.009.041.01.041.007.042.007.04.007.043.007.042.006.041.005.041.004.042.004.042.005.042.003.042.002.042.001.041.002h9.574l.021-.019v-1.824H3.055l-.042-.002-.043-.002-.041-.004-.042-.006-.041-.007-.041-.009-.04-.01-.04-.012-.041-.013-.038-.014-.039-.016-.038-.019-.038-.017-.036-.021-.035-.021-.035-.023-.034-.025-.034-.025-.032-.027-.031-.027-.029-.029-.029-.031-.027-.03-.027-.031-.026-.033-.024-.034-.024-.034-.022-.035-.02-.036-.02-.035-.018-.037-.017-.038-.017-.039-.015-.038-.014-.04-.013-.037-.012-.04-.011-.039-.009-.041-.009-.041-.006-.042-.007-.039-.005-.04-.006-.042-.002-.04-.003-.042v-.041l-.001-.042v-.538h8.793v-1.7H1.881v-.767l.002-.041.004-.042.008-.039.01-.04.012-.039.014-.04.016-.037.018-.037.019-.038.02-.035.024-.035.023-.034.026-.034.024-.032.029-.031.028-.031.03-.028.028-.028.033-.027.031-.028.034-.026.034-.023.034-.023.035-.022.037-.02.037-.021.038-.017.037-.02.04-.015.039-.015.039-.013.04-.013.041-.01.04-.011.041-.007.041-.007.042-.005.041-.005.043-.003.042-.001h9.532V7.772l-.009-.031zm57.983 9.091l-.042.009-.042.004h-.089l-.05.007h-.085l-.05.009H65.7l-.047-.009h-.131l-.042-.007h-.087l-.047-.004-.046-.009h-.046l-.047-.004-.041-.008-.038-.004-.046-.004-.047-.012h-.042l-.042-.008-.046-.008-.043-.008-.042-.008-.047-.012-.041-.003-.042-.012-.047-.008-.042-.015-.042-.005-.046-.011-.043-.012-.042-.012-.041-.012-.047-.012-.038-.019-.042-.012-.042-.011-.047-.012-.037-.016-.038-.016-.041-.019-.042-.012-.047-.016-.038-.019-.037-.012-.042-.016-.039-.02-.041-.016-.038-.023-.046-.016-.039-.019-.037-.016-.041-.019-.034-.027-.038-.016-.038-.019-.037-.02-.042-.024-.033-.023-.038-.02-.037-.024-.038-.023-.038-.019-.037-.024-.039-.027-.033-.024-.034-.023-.038-.024-.037-.027-.029-.023-.037-.028-.034-.027-.033-.024-.033-.027-.038-.027-.029-.031-.033-.024-.033-.027-.034-.027-.029-.032-.033-.027-.033-.027-.017-.02-.025-.023-.029-.032-.038-.035-.025-.023-.033-.032-.026-.031-.029-.036-.029-.027-.025-.031-.029-.032-.029-.039-.026-.028-.029-.032-.026-.039-.029-.028-.026-.039-.025-.031-.026-.031-.025-.035-.029-.036-.021-.031-.021-.035-.025-.04-.021-.031-.026-.036-.021-.036-.021-.039-.021-.036-.021-.035-.021-.039-.025-.035-.022-.036-.02-.04-.017-.035-.017-.04-.021-.036-.016-.043-.022-.035-.016-.035-.017-.04-.012-.043-.017-.035-.012-.036-.016-.043-.017-.035-.012-.04-.012-.043-.012-.038-.021-.04-.009-.043-.013-.035-.008-.04-.013-.043-.012-.031-.009-.047-.012-.04-.009-.04-.009-.043-.008-.039-.012-.04-.005-.042-.012-.04-.005-.047-.004-.036-.013-.039v-.043l-.008-.036-.009-.047v-.035l-.004-.051-.005-.035-.008-.043v-.129l-.009-.04v-.122.002-.85l.009-.04v-.126l.008-.043.005-.043.004-.035v-.043l.009-.04.004-.047.004-.035.005-.043.009-.043.009-.04.009-.039.009-.04.004-.043.012-.04.004-.039.013-.043.005-.043.016-.036.005-.042.017-.04.012-.04.008-.043.018-.036.012-.039.009-.043.016-.043.012-.035.017-.035.016-.04.009-.043.021-.036.017-.043.016-.035.018-.039.016-.036.021-.04.017-.04.016-.035.021-.039.021-.035.017-.04.021-.035.021-.032.021-.043.017-.035.021-.036.029-.031.02-.04.017-.035.025-.036.03-.035.021-.039.025-.032.021-.035.029-.036.025-.031.026-.032.025-.035.026-.032.029-.035.026-.027.029-.036.025-.035.033-.032.026-.031.029-.032.026-.035.033-.027.033-.028.026-.031.033-.035.026-.024.033-.032.016-.012.034-.031.029-.027.033-.029.033-.03.033-.032.029-.023.033-.032.038-.023.033-.023.034-.027.029-.027.033-.028.041-.012.038-.027.037-.023.033-.023.038-.028.033-.023.037-.02.038-.023.038-.024.038-.024.037-.019.038-.024.037-.019.038-.023.037-.02.038-.019.045-.025.037-.016.038-.019.038-.02.037-.016.047-.02.038-.019.042-.015.037-.02.042-.012.038-.019.046-.02.038-.012.042-.012.042-.019.038-.012.046-.011.043-.016.041-.016.038-.011.046-.012.043-.011.042-.012.046-.008.042-.012.042-.012.038-.007.046-.012.047-.012.038-.004.046-.008.042-.012.042-.004.05-.009.042-.011h.042l.046-.008.042-.005.043-.003.046-.009.047-.004.034-.002h.05l.043-.004.046-.004h.041l.043-.004h.05l.042-.008h4.556l.05.008h.089l.047.004h.037l.05.004.042.004.042.004.046.004.047.005.037.004.05.008h.042l.046.008.042.004.043.007.046.012.042.007.042.005.047.012.041.008.043.012.046.008.042.012.038.004.042.012.05.016.032.008.042.012.038.012.047.016.041.012.043.009.037.019.046.012.043.012.037.019.042.016.037.016.047.016.037.019.042.012.042.023.038.012.037.023.038.016.038.016.046.019.038.024.038.019.037.023.042.019.038.02.037.024.039.019.037.023.033.023.038.02.037.023.038.023.033.019.038.032.033.024.037.023.029.02.039.031.038.028.029.023.04.029.033.023.029.032.038.027.034.028.033.023.033.031.029.024.033.031.025.031.017.016.033.027.029.027.03.032.033.031.025.032.033.031.03.031.029.028.029.032.026.035.029.035.026.028.029.035.026.032.026.031.029.039.026.032.024.031.026.036.022.031.029.04.02.039.026.032.021.031.025.04.021.035.021.036.022.035.016.04.025.036.016.038.022.032.021.039.016.04.026.032.012.043.026.04.013.031.016.043.016.036.022.043.016.039.012.036.016.035.013.043.017.04.012.04.016.039.009.035.017.047.012.04.009.04.012.035.012.043.009.039.012.04.009.043.009.035.009.043.012.043.004.035.004.043.013.043.005.043.004.04.008.039.009.043v.043l.008.04.005.043.004.036v.086l.005.043v.039l.008.04v1.012l-.008.043v.043l-.005.036v.047l-.004.038v.044l-.004.043-.008.036-.005.047-.005.035-.012.048v.034l-.009.043-.009.043-.004.04-.012.04-.004.043-.017.043-.004.04-.012.04-.009.039-.013.039-.008.04-.017.043-.012.035-.005.043-.016.039-.017.035-.009.044-.012.039-.017.039-.016.039-.016.04-.013.039-.016.039-.017.04-.017.035-.021.04-.012.035-.021.036-.016.04-.022.035-.017.043-.02.036-.021.039-.021.036-.022.031-.025.043-.021.035-.016.032-.026.035-.021.039-.029.036-.021.036-.021.035-.025.036-.026.027-.025.039-.026.036-.025.032-.026.035-.033.031-.021.035-.034.032-.025.031-.029.036-.026.032-.029.031-.025.031-.033.032-.026.027-.033.032-.034.031-.024.031-.034.024-.034.036-.008.011-.033.032-.034.023-.029.032-.033.027-.033.027-.038.023-.025.032-.038.027-.034.024-.033.027-.038.028-.034.027-.037.019-.029.032-.033.023-.039.023-.037.02-.033.023-.038.027-.038.023-.042.024-.029.019-.038.023-.037.024-.042.019-.038.016-.038.026-.037.016-.038.024-.042.019-.037.019-.039.02-.046.016-.038.02-.037.016-.043.019-.037.012-.041.02-.047.011-.037.019-.039.016-.041.016-.043.016-.046.008-.04.014-.042.012-.042.016-.046.012-.038.012-.041.012-.042.012-.047.009-.042.015-.042.003-.047.012-.037.012-.046.012-.047.008-.038.009-.046.007-.047.009-.042.008-.042.004-.041.008-.047.008h-.041l-.05.004-.038.008-.046.004h-.045v-.004zm0-7.328h-.042l-.042-.008-.046-.008-.043-.005h-.135l-.05-.008h-4.495l-.046.008h-.082l-.05.005-.037.005-.047.004-.046.008-.042.003-.042.005-.046.007-.042.016h-.041l-.047.008-.047.016-.037.012-.047.007-.042.02-.042.004-.037.016-.043.011-.046.02-.036.015-.043.016-.038.016-.037.019-.046.016-.038.019-.043.023-.033.016-.038.02-.037.02-.038.023-.037.024-.038.023-.038.023-.038.028-.033.023-.037.024-.029.027-.033.024-.034.023-.037.032-.029.032-.029.023-.033.032-.009.008-.029.028-.029.031-.033.032-.034.03-.025.031-.033.028-.021.035-.034.036-.025.027-.021.04-.029.027-.021.039-.026.036-.025.031-.021.035-.021.04-.021.035-.021.035-.021.039-.021.036-.017.035-.016.043-.017.039-.016.039-.018.032-.016.042-.016.04-.009.036-.017.043-.012.043-.009.036-.012.043-.009.035-.009.043-.008.043-.013.038-.004.043-.005.036-.008.047-.009.039v.043l-.004.039v.04l-.008.043v.887l.008.042v.04l.004.043v.083l.009.039.008.04.009.043v.043l.013.035.008.043.009.044.009.034.012.043.009.039.017.04.012.043.016.039.009.04.016.031.022.043.016.04.013.035.021.036.016.043.021.032.022.043.021.035.016.039.021.04.029.027.02.035.026.04.026.027.026.04.02.036.034.031.025.031.021.036.034.031.029.032.029.027.029.032.034.031.029.032.009.003.029.032.034.023.033.032.034.023.029.032.037.023.034.028.038.027.033.023.033.019.038.027.037.024.038.019.038.023.037.016.038.027.038.016.042.024.037.015.043.016.037.019.038.02.037.016.047.016.042.016.043.008.037.016.046.016.043.012.041.012.047.012.042.008.042.012.038.008.05.009.043.008.046.004.042.007h.043l.046.005.041.008h.043l.05.008h.084l.046.004h4.418l.042-.004h.092l.042-.008h.042l.046-.008.047-.005.037-.007h.051l.042-.012.046-.005.042-.008.042-.007.042-.009.047-.016.037-.011.042-.013.042-.012.047-.012.031-.016.042-.012.037-.016.047-.016.038-.019.042-.019.042-.016.033-.012.042-.019.038-.019.038-.023.041-.024.038-.019.038-.019.037-.023.038-.024.038-.019.029-.027.038-.027.033-.023.038-.025.034-.027.034-.028.028-.03.039-.023.029-.028.034-.027.008-.009.029-.035.029-.023.034-.032.02-.031.034-.031.025-.032.033-.035.022-.032.029-.032.025-.035.029-.036.022-.031.024-.035.022-.035.025-.036.022-.039.02-.04.021-.031.021-.04.021-.036.018-.039.02-.036.017-.039.012-.043.017-.031.016-.043.009-.039.021-.039.012-.043.009-.036.012-.039.013-.04.009-.042.004-.04.012-.04.005-.043.012-.043.004-.039.009-.04.004-.043v-.039l.009-.047v-1.09l-.009-.043v-.036l-.004-.043-.009-.043-.002-.034-.012-.044-.005-.039-.012-.047-.004-.036-.017-.038-.005-.04-.016-.043-.009-.04-.012-.043-.017-.035-.016-.043-.018-.035-.008-.039-.016-.036-.021-.039-.018-.039-.017-.036-.021-.039-.021-.036-.021-.039-.025-.036-.021-.035-.026-.039-.017-.032-.025-.035-.025-.036-.026-.032-.029-.035-.02-.032-.029-.031-.029-.035-.026-.031-.029-.032-.029-.031-.029-.036-.034-.023-.029-.032-.009-.004-.029-.031-.034-.028-.034-.024-.033-.028-.029-.027-.038-.027-.033-.023-.038-.031-.038-.024-.029-.02-.038-.024-.038-.023-.039-.023-.037-.02-.038-.024-.037-.019-.038-.02-.037-.023-.042-.016-.038-.016-.042-.019-.046-.012-.037-.019-.043-.019-.038-.012-.042-.011-.046-.016-.038-.012-.042-.012-.042-.011-.047-.012-.042-.012-.042-.008-.046-.012-.041-.005-.042-.008-.046-.008zM33.045 8.33v5.519l.002.04.001.041.003.04.004.042.01.041.007.041.009.039.013.04.01.039.017.039.013.038.018.038.021.037.02.035.021.035.022.035.025.034.025.033.026.03.028.032.029.03.029.028.034.028.032.026.032.025.033.025.036.023.034.023.035.02.038.021.037.019.039.017.038.015.041.016.038.014.042.012.038.012.041.012.041.011.041.007.04.008.042.008.04.004.043.004.043.005.04.003.045.002h8.324V9.858h1.882v7.002h-10.16l-.044-.001h-.043l-.039-.002-.044-.001-.039-.002-.044-.003-.043-.004-.04-.003-.043-.003-.041-.006-.042-.004-.041-.006-.042-.007-.042-.006-.041-.007-.042-.006-.038-.009-.044-.009-.039-.008-.043-.009-.038-.01-.042-.01-.043-.011-.038-.011-.042-.012-.039-.013-.041-.013-.038-.012-.041-.014-.038-.014-.04-.014-.037-.017-.041-.015-.038-.016-.037-.017-.039-.017-.037-.018-.04-.018-.035-.019-.039-.018-.036-.02-.036-.019-.037-.021-.037-.022-.035-.02-.036-.022-.034-.024-.035-.022-.037-.022-.033-.024-.034-.025-.034-.024-.034-.025-.032-.026-.031-.025-.035-.027-.031-.026-.031-.028-.032-.028-.028-.028-.034-.028-.03-.029-.029-.029-.03-.03-.025-.03-.03-.031-.028-.029-.027-.033-.026-.031-.027-.032-.028-.031-.024-.034-.025-.032-.024-.035-.025-.032-.024-.034-.024-.035-.024-.034-.019-.036-.023-.035-.021-.034-.021-.037-.021-.036-.019-.036-.018-.038-.02-.035-.016-.038-.019-.037-.018-.038-.015-.038-.017-.038-.015-.04-.013-.037-.017-.039-.012-.039-.015-.038-.01-.04-.014-.039-.01-.041-.01-.039-.013-.04-.008-.039-.011-.041-.007-.041-.007-.04-.007-.041-.008-.041-.006-.039-.006-.041-.005-.04-.003-.042-.007-.042-.003-.041-.003-.04-.001-.041-.002-.042-.001-.041v-5.6"/><path d="M42.693 10.547v7.203c0 .162-.034.314-.092.454a1.17 1.17 0 01-.431.515 1.21 1.21 0 01-.668.199h-5.409v1.848h5.409c.421 0 .83-.085 1.198-.238a3.06 3.06 0 001.35-1.093c.331-.48.528-1.065.526-1.686v-7.203h-1.883v.001zm-18.777 3.2v-3.019a1.17 1.17 0 01.526-.969c.194-.126.417-.199.67-.199h3.971V7.711h-3.971c-.422 0-.832.086-1.2.239a3.064 3.064 0 00-1.352 1.093 2.963 2.963 0 00-.526 1.685v3.019h1.882z"/><path d="M22.029 12.434v1.296c0 .164-.036.315-.096.453a1.152 1.152 0 01-.431.517 1.209 1.209 0 01-.67.199h-4.69v1.849h4.69c.423 0 .831-.085 1.2-.237a3.065 3.065 0 001.352-1.093 2.947 2.947 0 00.527-1.687v-1.296h-1.882v-.001zm35.547-1.825v3.238c0 .166-.033.313-.092.449-.092.2-.239.376-.452.506-.213.13-.49.217-.837.217h-8.318v1.848h8.318c.45 0 .88-.078 1.274-.226a3.116 3.116 0 001.443-1.09c.35-.486.547-1.08.547-1.703V10.61h-1.883v-.001z"/><path d="M46.761 0h1.883v16.866h-1.883zm2.864 9.553h6.76c.165 0 .319.034.462.092a1.16 1.16 0 01.728 1.078v2.373h1.885v-2.373a2.999 2.999 0 00-1.357-2.501 3.091 3.091 0 00-1.718-.517h-6.76v1.848zm38.829-.517a.207.207 0 00.043-.3l-.862-1.083a.238.238 0 00-.319-.045l-4.885 3.449a.334.334 0 01-.362 0l-4.887-3.449a.238.238 0 00-.319.045l-.862 1.083a.206.206 0 00.043.3l4.443 3.136c.1.071.1.185 0 .256l-4.443 3.136a.207.207 0 00-.043.3l.862 1.083c.076.095.22.115.319.045l4.887-3.449a.336.336 0 01.362.001l4.885 3.448c.1.07.243.05.319-.045l.862-1.083a.206.206 0 00-.043-.3l-4.443-3.136c-.099-.071-.099-.185 0-.256l4.443-3.136zm-55.41.567V7.698h-1.877v1.905"/></svg>