<svg version="1.1" id="Livello_1" xmlns="http://www.w3.org/2000/svg" xmlns:xlink="http://www.w3.org/1999/xlink" x="0" y="0" width="307.034" height="43.554" viewBox="0 0 307.034 43.554" xml:space="preserve"><defs><path id="SVGID_7_" d="M0 0h307.034v43.554H0z"/></defs><clipPath id="SVGID_1_"><use xlink:href="#SVGID_7_" overflow="visible"/></clipPath><path clip-path="url(#SVGID_1_)" fill="#1D1D1B" d="M31.471 33.4a1.957 1.957 0 1 1-3.914 0 1.957 1.957 0 0 1 3.914 0"/><path clip-path="url(#SVGID_1_)" fill="none" stroke="#1D1D1B" stroke-width=".008" stroke-miterlimit="10" d="M31.471 33.4a1.957 1.957 0 1 1-3.914 0 1.957 1.957 0 0 1 3.914 0"/><path fill="#1D1D1B" d="M25.8 16.234H6.274l-.085.004-.087.003-.084.001-.09.003-.086.009-.088.007-.081.007-.086.007-.086.014-.087.013-.086.012-.085.011-.084.017-.083.014-.086.019-.085.018-.083.02-.087.021-.084.022-.081.024-.083.026-.083.025-.081.027-.084.025-.078.03-.083.029-.081.031-.08.033-.082.031-.078.036-.075.035-.08.036-.076.033-.081.041-.078.037-.075.042-.075.041-.077.041-.073.045-.075.045-.072.045-.074.042-.074.051-.069.048-.073.05-.073.051-.066.047-.072.05-.066.055-.068.052-.067.054-.068.056-.063.055-.067.059-.064.059-.062.061-.061.056-.065.062-.059.059-.059.065-.059.06-.06.062-.058.068-.057.065-.053.069-.056.065-.054.067-.053.069-.052.069-.053.068-.047.071-.05.069-.048.076-.046.071-.045.07-.045.076-.047.074-.039.078-.044.072-.038.076-.043.078-.037.08-.035.077-.037.078-.034.076-.033.084-.033.078-.034.079-.029.081-.027.083-.029.081-.027.081-.024.083-.027.085-.018.086-.021.081-.02.085-.02.083-.017.084-.016.086-.012.086-.014.082-.01.088-.012.088-.009.084-.007.086-.003.083-.004.089-.007.084-.001.089v6.388l.001.087.007.086.004.083.003.092.006.084.005.088.005.083.012.084.006.089.014.086.008.086.01.083.019.087.009.086.017.083.014.084.019.089.018.082.023.084.017.085.021.083.024.084.021.081.024.084.026.082.029.083.028.079.026.086.029.078.032.082.03.08.029.081.034.078.038.082.035.076.035.079.038.079.04.073.039.08.041.075.044.077.039.075.045.075.042.073.048.073.048.073.047.073.045.074.049.069.051.07.052.073.053.064.052.07.052.065.057.069.056.063.056.068.058.066.056.06.061.064.058.065.062.059.063.06.061.059.064.057.064.062.064.052.069.06.065.054.069.055.065.05.072.054.069.049.07.051.072.049.069.047.075.05.074.042.069.047.076.046.076.041.076.044.073.038.076.041.078.038.079.038.079.036.08.036.079.033.08.034.077.034.082.031.082.028.08.027.082.028.08.027.087.025.082.023.083.026.083.021.087.017.082.02.083.021.085.014.085.017.083.014.088.013.087.014.086.011.083.01.087.007.085.01.086.006.088.004.086.003.086.003.086.002h19.612l.042-.042v-3.824H6.294l-.086-.006-.089-.001-.084-.013-.088-.01-.084-.015-.083-.017-.085-.021-.081-.025-.083-.026-.078-.029-.082-.034-.08-.039-.076-.039-.076-.043-.072-.045-.071-.048-.072-.051-.066-.055-.067-.055-.063-.057-.061-.061-.06-.065-.055-.062-.056-.066-.051-.069-.051-.073-.05-.068-.044-.076-.042-.076-.042-.071-.037-.079-.035-.079-.037-.082-.029-.081-.029-.082-.026-.08-.024-.083-.026-.082-.015-.083-.017-.087-.016-.088-.014-.081-.011-.088-.01-.084-.007-.085-.003-.087-.002-.087-.002-.086v-1.132h18.09v-3.561H3.876v-1.609l.004-.088.01-.085.016-.085.019-.083.024-.083.033-.08.031-.081.036-.077.038-.079.043-.076.046-.07.049-.072.052-.072.053-.067.059-.065.057-.062.061-.062.062-.061.065-.055.064-.059.071-.055.069-.047.07-.048.072-.047.077-.041.075-.043.078-.037.078-.041.079-.032.082-.031.082-.028.078-.027.085-.023.086-.019.083-.016.084-.015.088-.011.084-.01.087-.007h19.697l.001-.085v-3.714l-.02-.069z"/><defs><path id="SVGID_9_" d="M0 0h307.034v43.554H0z"/></defs><clipPath id="SVGID_2_"><use xlink:href="#SVGID_9_" overflow="visible"/></clipPath><path clip-path="url(#SVGID_2_)" fill="none" stroke="#1D1D1B" stroke-width=".008" stroke-miterlimit="10" d="M25.799 16.234H6.275l-.086.003-.086.003-.086.003-.088.001-.086.01-.088.007-.083.007-.086.007-.085.013-.088.013-.084.012-.085.013-.086.015-.084.016-.083.017-.086.02-.083.019-.087.021-.083.023-.081.022-.084.027-.082.024-.083.028-.082.026-.08.028-.083.029-.08.033-.08.031-.081.032-.078.037-.075.034-.082.035-.076.035-.079.041-.079.036-.074.043-.076.039-.078.042-.073.044-.074.045-.072.046-.073.041-.074.052-.07.047-.072.051-.073.05-.066.048-.072.051-.068.053-.067.052-.066.055-.069.057-.062.054-.068.058-.065.061-.06.06-.062.057-.065.06-.059.061-.059.064-.058.061-.061.062-.057.068-.057.064-.054.068-.055.065-.055.069-.052.067-.054.071-.052.066-.046.073-.05.069-.049.075-.046.071-.044.071-.047.074-.045.074-.04.079-.044.071-.038.078-.042.077-.037.08-.037.077-.036.078-.034.076-.032.083-.034.078-.034.08-.03.08-.025.083-.029.082-.027.08-.024.085-.027.083-.02.086-.021.083-.018.083-.021.084-.016.085-.018.084-.01.086-.014.083-.011.089-.011.086-.01.086-.007.086-.003.081-.004.089-.006.085-.003.088v6.388l.003.088.006.085.004.085.003.09.005.084.006.088.006.084.011.083.006.09.014.086.008.085.011.084.017.088.011.084.017.085.014.084.017.087.02.083.021.085.017.083.021.084.026.083.021.082.024.085.026.081.027.082.028.08.027.085.03.08.031.08.031.08.029.081.032.079.04.083.034.076.035.078.039.079.038.074.041.078.04.076.043.076.041.076.044.075.043.073.047.072.048.073.046.074.047.074.049.068.051.072.052.071.052.065.052.071.053.064.055.069.057.064.056.066.058.066.057.062.06.063.057.065.064.059.063.059.061.059.064.058.064.062.064.052.068.059.065.055.07.054.065.051.072.054.067.05.071.05.072.048.068.048.075.051.075.042.07.047.075.046.077.039.075.044.073.039.077.04.078.039.079.038.079.037.08.035.079.033.08.033.076.036.082.029.081.03.081.026.081.029.082.025.087.027.082.022.082.027.084.021.086.017.082.02.084.021.085.012.084.019.084.014.086.013.088.012.086.013.084.008.084.007.086.012.086.005.09.003.085.003.086.004.086.001h19.613l.042-.042v-3.822H6.293l-.086-.006-.088-.001-.085-.013-.087-.01-.083-.015-.085-.019-.084-.019-.082-.026-.081-.027-.079-.029-.081-.034-.081-.039-.075-.037-.077-.044-.072-.046-.072-.047-.07-.05-.068-.057-.066-.053-.063-.058-.061-.06-.059-.065-.056-.062-.057-.068-.05-.067-.051-.073-.051-.069-.043-.075-.043-.077-.042-.072-.037-.079-.035-.078-.036-.083-.03-.08-.028-.082-.027-.081-.024-.082-.024-.082-.017-.084-.016-.086-.016-.087-.014-.082-.01-.087-.011-.085-.007-.085-.003-.088-.001-.087-.003-.086v-1.132h18.091V23.75H3.876v-1.609l.004-.087.01-.085.017-.084.018-.085.025-.081.031-.082.031-.08.037-.076.039-.079.043-.076.046-.072.049-.072.052-.072.051-.066.059-.066.058-.061.062-.062.06-.06.065-.055.065-.059.07-.055.071-.048.069-.048.072-.048.077-.039.075-.044.077-.036.079-.043.08-.031.08-.032.084-.028.077-.025.084-.023.086-.02.085-.015.083-.016.087-.011.085-.01.087-.007h19.696l.003-.086v-3.714l-.02-.068z"/><path fill="#1D1D1B" d="M145.096 19.934h-.086l-.086-.015-.096-.018-.086-.008h-.276l-.104-.015h-9.24l-.094.015h-.173l-.103.008-.077.008-.096.01-.096.015-.087.007-.086.008-.094.017-.087.032h-.086l-.094.017-.096.034-.077.024-.094.015-.086.042-.087.007-.076.035-.089.023-.094.042-.076.032-.087.032-.077.032-.079.041-.094.035-.077.039-.087.049-.068.034-.079.039-.077.042-.079.051-.076.049-.077.049-.079.046-.077.061-.069.048-.077.051-.059.056-.07.051-.07.048-.076.066-.059.066-.062.049-.068.065-.02.017-.059.058-.062.065-.068.066-.059.068-.054.065-.068.058-.044.073-.07.075-.051.056-.044.084-.059.058-.044.08-.053.075-.052.065-.042.073-.044.084-.042.075-.044.072-.044.083-.041.075-.035.073-.035.092-.035.082-.034.083-.037.065-.032.09-.034.083-.02.073-.032.09-.027.09-.017.075-.027.092-.017.073-.018.09-.016.09-.028.083-.007.09-.008.075-.017.099-.018.082v.092l-.008.08v.084l-.015.09v1.862l.015.09v.082l.008.09v.175l.018.08.017.082.015.092v.09l.028.075.016.09.018.093.017.072.027.092.017.082.035.082.024.092.035.08.018.084.032.065.046.089.032.084.027.073.044.073.034.092.044.068.044.089.044.075.032.082.044.082.061.058.044.075.052.082.051.056.052.083.044.076.069.063.052.066.042.073.07.066.061.066.059.058.059.066.07.065.062.068.017.007.059.066.07.049.068.066.07.049.059.066.077.049.07.058.079.055.068.051.068.041.079.058.077.049.079.042.077.048.076.034.079.058.077.031.086.051.079.032.087.032.075.042.079.042.077.031.096.034.086.032.087.017.077.032.094.034.087.024.086.025.094.024.087.015.086.027.076.015.104.017.087.017.094.008.086.014h.087l.094.01.086.015h.087l.103.017h.171l.096.007h9.069l.087-.007h.189l.086-.017h.087l.094-.015.094-.01.079-.014h.104l.087-.025.094-.01.086-.015.086-.015.084-.018.097-.031.076-.025.089-.025.084-.025.097-.024.086-.024.084-.025.077-.032.096-.034.077-.041.087-.041.086-.032.069-.025.084-.041.079-.042.079-.049.086-.048.077-.042.076-.041.079-.048.079-.051.077-.041.061-.056.077-.058.068-.049.079-.051.07-.058.069-.059.059-.063.079-.048.061-.058.069-.058.015-.018.061-.073.062-.049.069-.066.042-.065.07-.066.051-.066.07-.073.044-.065.059-.069.051-.072.059-.075.046-.065.051-.076.044-.073.051-.073.044-.082.044-.083.042-.066.044-.082.044-.075.034-.082.045-.075.032-.083.027-.089.035-.066.032-.09.018-.082.044-.082.025-.092.017-.073.025-.083.028-.083.017-.09.007-.082.027-.082.008-.092.025-.092.01-.082.015-.082.01-.092v-.082l.017-.099v-2.29l-.017-.092v-.073l-.01-.092-.015-.09-.01-.073-.025-.092-.008-.082-.027-.099-.007-.075-.037-.083-.008-.08-.032-.09-.018-.084-.025-.092-.035-.072-.034-.09-.037-.073-.015-.083-.035-.075-.042-.083-.035-.082-.035-.073-.044-.083-.041-.075-.045-.08-.051-.076-.044-.073-.052-.082-.035-.066-.051-.072-.052-.076-.051-.066-.061-.073-.042-.066-.062-.065-.061-.073-.051-.068-.062-.066-.061-.065-.059-.075-.07-.048-.059-.068-.018-.008-.059-.063-.07-.059-.068-.058-.07-.058-.059-.058-.079-.056-.068-.049-.079-.066-.077-.049-.059-.042-.079-.048-.079-.049-.079-.049-.077-.042-.076-.049-.077-.041-.079-.041-.077-.049-.087-.032-.076-.034-.087-.041-.096-.025-.075-.041-.087-.039-.079-.027-.086-.023-.094-.035-.079-.024-.086-.025-.087-.024-.094-.025-.086-.024-.087-.017-.094-.025-.086-.007-.086-.017-.094-.013zm0 15.365l-.086.015-.086.008h-.182l-.103.017h-.173l-.104.017h-9.17l-.097-.017h-.268l-.086-.017h-.182l-.094-.008-.094-.015h-.094l-.096-.008-.086-.015-.079-.01-.094-.008-.094-.024h-.089l-.084-.015-.094-.017-.089-.015-.084-.017-.097-.025-.086-.008-.086-.024-.096-.018-.086-.031-.086-.008-.094-.025-.087-.024-.086-.027-.086-.023-.096-.025-.077-.041-.084-.024-.089-.025-.094-.024-.076-.034-.079-.032-.086-.042-.086-.025-.096-.032-.077-.041-.079-.023-.086-.035-.079-.039-.084-.034-.079-.051-.093-.031-.079-.041-.077-.035-.086-.039-.069-.058-.079-.032-.079-.041-.076-.041-.087-.051-.068-.049-.079-.039-.077-.051-.079-.049-.076-.042-.077-.049-.079-.058-.068-.049-.07-.048-.077-.049-.076-.058-.062-.049-.076-.058-.07-.058-.07-.051-.068-.056-.079-.058-.059-.066-.07-.049-.068-.058-.07-.055-.059-.068-.069-.058-.07-.058-.034-.041-.051-.049-.062-.065-.079-.076-.051-.048-.068-.065-.053-.068-.061-.073-.059-.059-.054-.065-.059-.065-.061-.082-.054-.058-.059-.066-.052-.083-.059-.058-.052-.083-.054-.063-.051-.066-.052-.075-.059-.075-.044-.065-.042-.073-.052-.084-.044-.065-.051-.075-.045-.073-.044-.083-.041-.073-.045-.073-.044-.084-.051-.072-.044-.075-.044-.082-.032-.075-.035-.083-.044-.073-.034-.09-.045-.075-.034-.072-.035-.084-.025-.09-.035-.073-.024-.075-.035-.09-.035-.073-.025-.084-.025-.089-.027-.083-.042-.082-.018-.092-.027-.073-.015-.082-.027-.092-.025-.065-.018-.1-.024-.082-.018-.083-.017-.089-.017-.082-.027-.084-.008-.089-.025-.083-.01-.097-.007-.076-.028-.082v-.092l-.015-.073-.018-.097v-.076l-.008-.107-.008-.073-.015-.09v-.273l-.02-.082v-2.047l.02-.083v-.261l.015-.093.008-.09.008-.073v-.09l.018-.084.008-.099.007-.073.008-.089.02-.092.017-.082.017-.082.017-.083.008-.089.027-.084.008-.082.024-.09.011-.09.032-.076.01-.089.035-.082.025-.084.015-.089.037-.073.025-.083.017-.09.034-.092.028-.073.032-.073.035-.084.018-.089.041-.075.037-.09.034-.073.035-.083.035-.075.042-.083.034-.082.035-.073.042-.082.044-.075.035-.082.044-.073.042-.066.044-.092.035-.073.042-.076.061-.065.042-.082.035-.073.051-.076.062-.073.042-.082.054-.066.041-.075.062-.073.051-.066.052-.066.052-.073.051-.066.062-.075.052-.055.059-.076.053-.073.066-.066.053-.065.061-.066.052-.075.068-.058.07-.058.051-.066.07-.073.052-.049.068-.066.035-.024.069-.065.061-.058.069-.061.069-.062.069-.066.061-.049.069-.069.076-.048.07-.049.07-.056.061-.058.068-.058.077-.042.079-.058.077-.049.07-.048.076-.058.069-.049.076-.042.079-.049.079-.049.077-.051.077-.039.077-.049.077-.039.079-.052.077-.039.076-.042.087-.049.077-.032.079-.041.077-.039.079-.034.094-.042.079-.042.084-.031.077-.042.086-.024.079-.041.094-.042.079-.024.086-.024.086-.042.077-.025.096-.024.087-.034.083-.032.079-.025.094-.024.087-.024.086-.025.097-.015.084-.027.086-.024.079-.015.094-.025.094-.024.079-.008.094-.015.086-.025.087-.008.104-.017.086-.023h.084l.094-.018.086-.008.087-.007.096-.018.096-.008.079-.007h.101l.087-.008.094-.008h.086l.087-.007h.103l.087-.015h9.355l.101.015h.181l.096.007h.077l.103.008.087.008.084.007.096.008.096.011.077.007.103.015h.089l.094.018.084.006.089.017.094.025.086.014.087.011.094.024.086.015.084.027.096.015.087.024.076.007.087.027.104.031.086.027.087.024.076.025.097.031.086.027.087.015.076.042.094.024.089.025.075.039.087.034.077.032.096.034.077.041.087.025.086.049.076.024.077.048.079.035.079.032.094.041.077.049.079.039.076.051.087.041.077.039.077.051.077.042.077.049.07.049.077.042.076.046.079.051.069.041.077.066.069.051.077.048.061.041.079.068.079.055.059.049.077.058.068.051.059.066.079.056.07.058.07.049.068.066.062.049.068.065.051.066.035.034.068.058.062.058.061.065.07.066.051.066.068.065.062.066.061.058.061.066.051.075.061.073.052.058.061.073.052.066.052.065.059.082.053.068.051.065.052.075.044.065.062.084.041.08.053.066.041.066.053.083.044.073.042.075.044.073.032.083.054.073.032.082.045.068.042.08.035.082.052.066.025.09.052.083.027.065.035.092.032.075.045.09.034.082.027.075.032.075.027.089.035.082.024.083.035.082.017.073.035.1.027.082.017.083.025.075.025.09.02.08.024.083.018.092.017.073.015.092.027.09.008.072.008.092.027.09.008.092.01.082.017.083.017.09v.09l.017.083.01.09.007.075v.181l.01.092v.08l.017.084v2.142l-.017.089v.092l-.01.073v.1l-.007.08v.093l-.01.089-.017.073-.008.1-.008.073-.027.1v.073l-.017.092-.018.09-.008.08-.024.084-.011.089-.032.092-.008.082-.025.083-.018.082-.027.082-.015.084-.035.089-.027.075-.008.09-.034.083-.034.072-.02.092-.025.083-.034.082-.035.08-.034.084-.025.082-.035.08-.035.084-.034.073-.044.083-.025.073-.044.073-.034.084-.044.073-.035.089-.042.076-.044.082-.044.073-.044.066-.051.09-.044.073-.034.066-.052.073-.044.083-.061.075-.042.073-.044.076-.051.073-.054.058-.051.08-.052.075-.052.068-.051.073-.07.065-.042.073-.069.066-.051.066-.062.073-.052.068-.059.065-.054.066-.068.066-.052.056-.069.068-.07.065-.051.065-.069.051-.07.073-.015.025-.07.066-.068.049-.062.065-.069.059-.068.056-.079.049-.052.066-.076.058-.07.051-.069.056-.077.056-.07.059-.076.039-.061.066-.069.051-.077.048-.079.042-.068.048-.077.058-.079.049-.086.049-.059.042-.079.049-.077.048-.087.042-.077.034-.079.056-.076.034-.077.049-.087.041-.077.039-.079.042-.094.034-.079.042-.076.031-.087.041-.076.025-.086.042-.096.023-.077.041-.079.035-.084.032-.089.031-.094.018-.079.039-.084.027-.089.031-.094.025-.076.024-.086.025-.086.024-.096.017-.086.034-.087.007-.094.024-.077.025-.094.025-.097.017-.077.015-.093.017-.097.015-.084.017-.089.008-.084.017-.097.015h-.086l-.103.01-.077.015-.094.008h-.085z"/><path fill="none" stroke="#1D1D1B" stroke-width=".008" stroke-miterlimit="10" d="M145.096 19.934h-.086l-.086-.015-.096-.018-.086-.008h-.276l-.104-.015h-9.24l-.094.015h-.173l-.103.008-.077.008-.096.01-.096.015-.087.007-.086.008-.094.017-.087.032h-.086l-.094.017-.096.034-.077.024-.094.015-.086.042-.087.007-.076.035-.089.023-.094.042-.076.032-.087.032-.077.032-.079.041-.094.035-.077.039-.087.049-.068.034-.079.039-.077.042-.079.051-.076.049-.077.049-.079.046-.077.061-.069.048-.077.051-.059.056-.07.051-.07.048-.076.066-.059.066-.062.049-.068.065-.02.017-.059.058-.062.065-.068.066-.059.068-.054.065-.068.058-.044.073-.07.075-.051.056-.044.084-.059.058-.044.08-.053.075-.052.065-.042.073-.044.084-.042.075-.044.072-.044.083-.041.075-.035.073-.035.092-.035.082-.034.083-.037.065-.032.09-.034.083-.02.073-.032.09-.027.09-.017.075-.027.092-.017.073-.018.09-.016.09-.028.083-.007.09-.008.075-.017.099-.018.082v.092l-.008.08v.084l-.015.09v1.862l.015.09v.082l.008.09v.175l.018.08.017.082.015.092v.09l.028.075.016.09.018.093.017.072.027.092.017.082.035.082.024.092.035.08.018.084.032.065.046.089.032.084.027.073.044.073.034.092.044.068.044.089.044.075.032.082.044.082.061.058.044.075.052.082.051.056.052.083.044.076.069.063.052.066.042.073.07.066.061.066.059.058.059.066.07.065.062.068.017.007.059.066.07.049.068.066.07.049.059.066.077.049.07.058.079.055.068.051.068.041.079.058.077.049.079.042.077.048.076.034.079.058.077.031.086.051.079.032.087.032.075.042.079.042.077.031.096.034.086.032.087.017.077.032.094.034.087.024.086.025.094.024.087.015.086.027.076.015.104.017.087.017.094.008.086.014h.087l.094.01.086.015h.087l.103.017h.171l.096.007h9.069l.087-.007h.189l.086-.017h.087l.094-.015.094-.01.079-.014h.104l.087-.025.094-.01.086-.015.086-.015.084-.018.097-.031.076-.025.089-.025.084-.025.097-.024.086-.024.084-.025.077-.032.096-.034.077-.041.087-.041.086-.032.069-.025.084-.041.079-.042.079-.049.086-.048.077-.042.076-.041.079-.048.079-.051.077-.041.061-.056.077-.058.068-.049.079-.051.07-.058.069-.059.059-.063.079-.048.061-.058.069-.058.015-.018.061-.073.062-.049.069-.066.042-.065.07-.066.051-.066.07-.073.044-.065.059-.069.051-.072.059-.075.046-.065.051-.076.044-.073.051-.073.044-.082.044-.083.042-.066.044-.082.044-.075.034-.082.045-.075.032-.083.027-.089.035-.066.032-.09.018-.082.044-.082.025-.092.017-.073.025-.083.028-.083.017-.09.007-.082.027-.082.008-.092.025-.092.01-.082.015-.082.01-.092v-.082l.017-.099v-2.29l-.017-.092v-.073l-.01-.092-.015-.09-.01-.073-.025-.092-.008-.082-.027-.099-.007-.075-.037-.083-.008-.08-.032-.09-.018-.084-.025-.092-.035-.072-.034-.09-.037-.073-.015-.083-.035-.075-.042-.083-.035-.082-.035-.073-.044-.083-.041-.075-.045-.08-.051-.076-.044-.073-.052-.082-.035-.066-.051-.072-.052-.076-.051-.066-.061-.073-.042-.066-.062-.065-.061-.073-.051-.068-.062-.066-.061-.065-.059-.075-.07-.048-.059-.068-.018-.008-.059-.063-.07-.059-.068-.058-.07-.058-.059-.058-.079-.056-.068-.049-.079-.066-.077-.049-.059-.042-.079-.048-.079-.049-.079-.049-.077-.042-.076-.049-.077-.041-.079-.041-.077-.049-.087-.032-.076-.034-.087-.041-.096-.025-.075-.041-.087-.039-.079-.027-.086-.023-.094-.035-.079-.024-.086-.025-.087-.024-.094-.025-.086-.024-.087-.017-.094-.025-.086-.007-.086-.017-.094-.013zm0 15.365l-.086.015-.086.008h-.182l-.103.017h-.173l-.104.017h-9.17l-.097-.017h-.268l-.086-.017h-.182l-.094-.008-.094-.015h-.094l-.096-.008-.086-.015-.079-.01-.094-.008-.094-.024h-.089l-.084-.015-.094-.017-.089-.015-.084-.017-.097-.025-.086-.008-.086-.024-.096-.018-.086-.031-.086-.008-.094-.025-.087-.024-.086-.027-.086-.023-.096-.025-.077-.041-.084-.024-.089-.025-.094-.024-.076-.034-.079-.032-.086-.042-.086-.025-.096-.032-.077-.041-.079-.023-.086-.035-.079-.039-.084-.034-.079-.051-.093-.031-.079-.041-.077-.035-.086-.039-.069-.058-.079-.032-.079-.041-.076-.041-.087-.051-.068-.049-.079-.039-.077-.051-.079-.049-.076-.042-.077-.049-.079-.058-.068-.049-.07-.048-.077-.049-.076-.058-.062-.049-.076-.058-.07-.058-.07-.051-.068-.056-.079-.058-.059-.066-.07-.049-.068-.058-.07-.055-.059-.068-.069-.058-.07-.058-.034-.041-.051-.049-.062-.065-.079-.076-.051-.048-.068-.065-.053-.068-.061-.073-.059-.059-.054-.065-.059-.065-.061-.082-.054-.058-.059-.066-.052-.083-.059-.058-.052-.083-.054-.063-.051-.066-.052-.075-.059-.075-.044-.065-.042-.073-.052-.084-.044-.065-.051-.075-.045-.073-.044-.083-.041-.073-.045-.073-.044-.084-.051-.072-.044-.075-.044-.082-.032-.075-.035-.083-.044-.073-.034-.09-.045-.075-.034-.072-.035-.084-.025-.09-.035-.073-.024-.075-.035-.09-.035-.073-.025-.084-.025-.089-.027-.083-.042-.082-.018-.092-.027-.073-.015-.082-.027-.092-.025-.065-.018-.1-.024-.082-.018-.083-.017-.089-.017-.082-.027-.084-.008-.089-.025-.083-.01-.097-.007-.076-.028-.082v-.092l-.015-.073-.018-.097v-.076l-.008-.107-.008-.073-.015-.09v-.273l-.02-.082v-2.047l.02-.083v-.261l.015-.093.008-.09.008-.073v-.09l.018-.084.008-.099.007-.073.008-.089.02-.092.017-.082.017-.082.017-.083.008-.089.027-.084.008-.082.024-.09.011-.09.032-.076.01-.089.035-.082.025-.084.015-.089.037-.073.025-.083.017-.09.034-.092.028-.073.032-.073.035-.084.018-.089.041-.075.037-.09.034-.073.035-.083.035-.075.042-.083.034-.082.035-.073.042-.082.044-.075.035-.082.044-.073.042-.066.044-.092.035-.073.042-.076.061-.065.042-.082.035-.073.051-.076.062-.073.042-.082.054-.066.041-.075.062-.073.051-.066.052-.066.052-.073.051-.066.062-.075.052-.055.059-.076.053-.073.066-.066.053-.065.061-.066.052-.075.068-.058.07-.058.051-.066.07-.073.052-.049.068-.066.035-.024.069-.065.061-.058.069-.061.069-.062.069-.066.061-.049.069-.069.076-.048.07-.049.07-.056.061-.058.068-.058.077-.042.079-.058.077-.049.07-.048.076-.058.069-.049.076-.042.079-.049.079-.049.077-.051.077-.039.077-.049.077-.039.079-.052.077-.039.076-.042.087-.049.077-.032.079-.041.077-.039.079-.034.094-.042.079-.042.084-.031.077-.042.086-.024.079-.041.094-.042.079-.024.086-.024.086-.042.077-.025.096-.024.087-.034.083-.032.079-.025.094-.024.087-.024.086-.025.097-.015.084-.027.086-.024.079-.015.094-.025.094-.024.079-.008.094-.015.086-.025.087-.008.104-.017.086-.023h.084l.094-.018.086-.008.087-.007.096-.018.096-.008.079-.007h.101l.087-.008.094-.008h.086l.087-.007h.103l.087-.015h9.355l.101.015h.181l.096.007h.077l.103.008.087.008.084.007.096.008.096.011.077.007.103.015h.089l.094.018.084.006.089.017.094.025.086.014.087.011.094.024.086.015.084.027.096.015.087.024.076.007.087.027.104.031.086.027.087.024.076.025.097.031.086.027.087.015.076.042.094.024.089.025.075.039.087.034.077.032.096.034.077.041.087.025.086.049.076.024.077.048.079.035.079.032.094.041.077.049.079.039.076.051.087.041.077.039.077.051.077.042.077.049.07.049.077.042.076.046.079.051.069.041.077.066.069.051.077.048.061.041.079.068.079.055.059.049.077.058.068.051.059.066.079.056.07.058.07.049.068.066.062.049.068.065.051.066.035.034.068.058.062.058.061.065.07.066.051.066.068.065.062.066.061.058.061.066.051.075.061.073.052.058.061.073.052.066.052.065.059.082.053.068.051.065.052.075.044.065.062.084.041.08.053.066.041.066.053.083.044.073.042.075.044.073.032.083.054.073.032.082.045.068.042.08.035.082.052.066.025.09.052.083.027.065.035.092.032.075.045.09.034.082.027.075.032.075.027.089.035.082.024.083.035.082.017.073.035.1.027.082.017.083.025.075.025.09.02.08.024.083.018.092.017.073.015.092.027.09.008.072.008.092.027.09.008.092.01.082.017.083.017.09v.09l.017.083.01.09.007.075v.181l.01.092v.08l.017.084v2.142l-.017.089v.092l-.01.073v.1l-.007.08v.093l-.01.089-.017.073-.008.1-.008.073-.027.1v.073l-.017.092-.018.09-.008.08-.024.084-.011.089-.032.092-.008.082-.025.083-.018.082-.027.082-.015.084-.035.089-.027.075-.008.09-.034.083-.034.072-.02.092-.025.083-.034.082-.035.08-.034.084-.025.082-.035.08-.035.084-.034.073-.044.083-.025.073-.044.073-.034.084-.044.073-.035.089-.042.076-.044.082-.044.073-.044.066-.051.09-.044.073-.034.066-.052.073-.044.083-.061.075-.042.073-.044.076-.051.073-.054.058-.051.08-.052.075-.052.068-.051.073-.07.065-.042.073-.069.066-.051.066-.062.073-.052.068-.059.065-.054.066-.068.066-.052.056-.069.068-.07.065-.051.065-.069.051-.07.073-.015.025-.07.066-.068.049-.062.065-.069.059-.068.056-.079.049-.052.066-.076.058-.07.051-.069.056-.077.056-.07.059-.076.039-.061.066-.069.051-.077.048-.079.042-.068.048-.077.058-.079.049-.086.049-.059.042-.079.049-.077.048-.087.042-.077.034-.079.056-.076.034-.077.049-.087.041-.077.039-.079.042-.094.034-.079.042-.076.031-.087.041-.076.025-.086.042-.096.023-.077.041-.079.035-.084.032-.089.031-.094.018-.079.039-.084.027-.089.031-.094.025-.076.024-.086.025-.086.024-.096.017-.086.034-.087.007-.094.024-.077.025-.094.025-.097.017-.077.015-.093.017-.097.015-.084.017-.089.008-.084.017-.097.015h-.086l-.103.01-.077.015-.094.008h-.085z"/><defs><path id="SVGID_11_" d="M0 0h307.034v43.554H0z"/></defs><clipPath id="SVGID_3_"><use xlink:href="#SVGID_11_" overflow="visible"/></clipPath><path clip-path="url(#SVGID_3_)" fill="#1D1D1B" d="M51.674 16.173c-.867 0-1.711.18-2.468.5a6.342 6.342 0 0 0-2.781 2.292 6.299 6.299 0 0 0-1.081 3.533v3.579h-.013v2.717c0 .344-.076.662-.197.95a2.443 2.443 0 0 1-2.264 1.5h-9.652v3.878h9.652c.869 0 1.709-.177 2.468-.498a6.349 6.349 0 0 0 2.781-2.292c.68-1 1.076-2.215 1.081-3.502h.013v-6.332c0-.339.076-.658.196-.95a2.451 2.451 0 0 1 2.265-1.498h8.172v-3.876h-8.172z"/><path clip-path="url(#SVGID_3_)" fill="none" stroke="#1D1D1B" stroke-width=".008" stroke-miterlimit="10" d="M51.674 16.173c-.867 0-1.711.18-2.468.5a6.342 6.342 0 0 0-2.781 2.292 6.299 6.299 0 0 0-1.081 3.533v3.579h-.013v2.717c0 .344-.076.662-.197.95a2.443 2.443 0 0 1-2.264 1.5h-9.652v3.878h9.652c.869 0 1.709-.177 2.468-.498a6.349 6.349 0 0 0 2.781-2.292c.68-1 1.076-2.215 1.081-3.502h.013v-6.332c0-.339.076-.658.196-.95a2.451 2.451 0 0 1 2.265-1.498h8.172v-3.876h-8.172z"/><path clip-path="url(#SVGID_3_)" fill="#1D1D1B" d="M122.345 22.492v-.242h-.013a6.325 6.325 0 0 0-.49-2.22 6.285 6.285 0 0 0-2.291-2.784 6.297 6.297 0 0 0-3.535-1.083H102.11v3.873h13.907c.342 0 .659.072.955.194a2.445 2.445 0 0 1 1.496 2.261v4.974h.001v1.574c0 .348-.068.656-.189.941-.189.42-.491.788-.929 1.06-.436.273-1.007.455-1.721.455h-15.54V.006h-3.875V35.37h3.875v-.001h15.54c.926 0 1.811-.163 2.622-.473a6.418 6.418 0 0 0 2.968-2.287 6.193 6.193 0 0 0 1.125-3.569v-6.548z"/><path clip-path="url(#SVGID_3_)" fill="none" stroke="#1D1D1B" stroke-width=".008" stroke-miterlimit="10" d="M122.345 22.492v-.242h-.013a6.325 6.325 0 0 0-.49-2.22 6.285 6.285 0 0 0-2.291-2.784 6.297 6.297 0 0 0-3.535-1.083H102.11v3.873h13.907c.342 0 .659.072.955.194a2.445 2.445 0 0 1 1.496 2.261v4.974h.001v1.574c0 .348-.068.656-.189.941-.189.42-.491.788-.929 1.06-.436.273-1.007.455-1.721.455h-15.54V.006h-3.875V35.37h3.875v-.001h15.54c.926 0 1.811-.163 2.622-.473a6.418 6.418 0 0 0 2.968-2.287 6.193 6.193 0 0 0 1.125-3.569v-6.548z"/><path clip-path="url(#SVGID_3_)" fill="#1D1D1B" d="M182 18.952a.438.438 0 0 0 .089-.629l-1.773-2.272a.484.484 0 0 0-.656-.094l-10.052 7.233a.682.682 0 0 1-.746 0l-10.054-7.233a.483.483 0 0 0-.655.094l-1.775 2.272a.438.438 0 0 0 .089.629l9.143 6.575c.206.148.206.39 0 .536l-9.143 6.575a.44.44 0 0 0-.089.631l1.775 2.271a.483.483 0 0 0 .655.094l10.054-7.233a.688.688 0 0 1 .746.001l10.052 7.231c.204.146.5.104.656-.094l1.773-2.271a.44.44 0 0 0-.089-.631l-9.141-6.575c-.207-.146-.207-.389 0-.536L182 18.952z"/><path clip-path="url(#SVGID_3_)" fill="none" stroke="#1D1D1B" stroke-width=".008" stroke-miterlimit="10" d="M182 18.952a.438.438 0 0 0 .089-.629l-1.773-2.272a.484.484 0 0 0-.656-.094l-10.052 7.233a.682.682 0 0 1-.746 0l-10.054-7.233a.483.483 0 0 0-.655.094l-1.775 2.272a.438.438 0 0 0 .089.629l9.143 6.575c.206.148.206.39 0 .536l-9.143 6.575a.44.44 0 0 0-.089.631l1.775 2.271a.483.483 0 0 0 .655.094l10.054-7.233a.688.688 0 0 1 .746.001l10.052 7.231c.204.146.5.104.656-.094l1.773-2.271a.44.44 0 0 0-.089-.631l-9.141-6.575c-.207-.146-.207-.389 0-.536L182 18.952z"/><path clip-path="url(#SVGID_3_)" fill="#1D1D1B" d="M91.702 22.121v-1.446h-3.871v10.816H70.786l-.083-.001-.09-.004-.083-.004-.089-.011-.089-.008-.083-.01-.087-.014-.08-.018-.084-.015-.083-.023-.086-.024-.079-.025-.086-.027-.079-.03-.083-.031-.079-.034-.079-.037-.076-.038-.079-.044-.073-.042-.069-.046-.075-.049-.068-.051-.066-.055-.065-.055-.069-.056-.061-.059-.062-.063-.055-.066-.055-.065-.051-.07-.052-.068-.045-.075-.042-.075-.042-.073-.042-.079-.038-.077-.027-.08-.035-.082-.021-.083-.025-.083-.02-.083-.015-.086-.018-.084-.008-.089-.007-.083-.001-.086-.003-.086V17.472h-.004v-1.325h-3.859v1.278h-.001v11.736l.003.089.003.087.004.086.004.084.007.087.014.087.006.087.01.083.011.087.013.082.018.087.014.084.014.084.014.087.023.083.018.083.025.083.021.083.02.083.03.084.021.084.03.077.024.082.035.083.028.079.03.083.035.08.03.079.041.077.037.082.032.076.042.073.037.079.041.077.042.077.042.075.045.073.045.073.041.076.048.07.049.073.049.072.051.068.049.072.054.068.051.07.056.065.055.069.054.065.056.068.058.063.059.062.055.065.059.062.061.061.063.061.066.061.061.059.066.058.061.058.066.056.07.055.066.052.065.056.069.052.073.051.068.051.069.051.076.046.07.048.072.049.073.046.072.042.076.044.076.046.076.039.072.042.08.038.073.039.082.038.076.037.082.037.073.035.079.034.08.04.077.034.082.031.079.028.086.03.076.027.084.025.08.027.086.027.08.023.087.023.086.021.079.021.087.021.08.015.09.018.08.018.086.014.083.014.087.014.086.011.084.014.087.007.084.013.089.007.082.007.087.007.09.007.082.006.09.001.082.003.087.003h17.139v1.867a2.437 2.437 0 0 1-1.078 2.032 2.438 2.438 0 0 1-1.373.418h-11.13v3.875h11.13a6.313 6.313 0 0 0 5.243-2.787 6.313 6.313 0 0 0 1.081-3.537V22.121h-.015z"/><path clip-path="url(#SVGID_3_)" fill="none" stroke="#1D1D1B" stroke-width=".008" stroke-miterlimit="10" d="M91.702 22.121v-1.446h-3.871v10.816H70.786l-.083-.001-.09-.004-.083-.004-.089-.011-.089-.008-.083-.01-.087-.014-.08-.018-.084-.015-.083-.023-.086-.024-.079-.025-.086-.027-.079-.03-.083-.031-.079-.034-.079-.037-.076-.038-.079-.044-.073-.042-.069-.046-.075-.049-.068-.051-.066-.055-.065-.055-.069-.056-.061-.059-.062-.063-.055-.066-.055-.065-.051-.07-.052-.068-.045-.075-.042-.075-.042-.073-.042-.079-.038-.077-.027-.08-.035-.082-.021-.083-.025-.083-.02-.083-.015-.086-.018-.084-.008-.089-.007-.083-.001-.086-.003-.086V17.472h-.004v-1.325h-3.859v1.278h-.001v11.736l.003.089.003.087.004.086.004.084.007.087.014.087.006.087.01.083.011.087.013.082.018.087.014.084.014.084.014.087.023.083.018.083.025.083.021.083.02.083.03.084.021.084.03.077.024.082.035.083.028.079.03.083.035.08.03.079.041.077.037.082.032.076.042.073.037.079.041.077.042.077.042.075.045.073.045.073.041.076.048.07.049.073.049.072.051.068.049.072.054.068.051.07.056.065.055.069.054.065.056.068.058.063.059.062.055.065.059.062.061.061.063.061.066.061.061.059.066.058.061.058.066.056.07.055.066.052.065.056.069.052.073.051.068.051.069.051.076.046.07.048.072.049.073.046.072.042.076.044.076.046.076.039.072.042.08.038.073.039.082.038.076.037.082.037.073.035.079.034.08.04.077.034.082.031.079.028.086.03.076.027.084.025.08.027.086.027.08.023.087.023.086.021.079.021.087.021.08.015.09.018.08.018.086.014.083.014.087.014.086.011.084.014.087.007.084.013.089.007.082.007.087.007.09.007.082.006.09.001.082.003.087.003h17.139v1.867a2.437 2.437 0 0 1-1.078 2.032 2.438 2.438 0 0 1-1.373.418h-11.13v3.875h11.13a6.313 6.313 0 0 0 5.243-2.787 6.313 6.313 0 0 0 1.081-3.537V22.121h-.015z"/><path fill="#1D1D1B" d="M236.496 16.247h4.71v19.039h-4.71zm37.039 19.063l.011-.157V23.93l-.007-.102v-.107l-.008-.103-.012-.107-.022-.103-.02-.105-.022-.1-.03-.103-.027-.099-.042-.098-.034-.099-.046-.096-.05-.094-.053-.089-.049-.09-.057-.091-.062-.085-.064-.083-.064-.08-.069-.08-.076-.076-.073-.072-.083-.069-.08-.068-.079-.065-.085-.064-.087-.058-.087-.056-.087-.054-.096-.053-.092-.045-.098-.047-.096-.042-.103-.038-.094-.034-.103-.034-.096-.031-.105-.026-.1-.027-.106-.019-.096-.022-.105-.02-.1-.011-.11-.011-.107-.012-.103-.008-.11-.003-.098-.004h-18.868v14.408h-4.71V16.244h23.562l.11.005h.103l.103.002.107.005.098.004.11.007.107.011.103.009.107.007.103.019.105.007.103.016.103.015.107.014.103.02.102.016.099.022.107.023.099.019.107.027.094.023.107.029.107.024.094.03.107.031.095.034.102.03.096.03.107.039.094.034.099.038.092.043.102.038.096.04.092.043.098.045.092.046.102.045.088.047.098.045.088.053.091.049.092.054.091.053.087.054.092.056.087.061.083.053.096.058.083.065.085.06.087.061.083.065.08.069.081.064.083.065.08.068.076.069.08.072.072.073.084.072.076.071.072.076.072.076.065.077.076.08.069.073.069.083.065.08.064.083.072.081.061.083.064.084.061.087.062.084.061.088.056.088.062.083.049.095.054.088.056.087.049.091.054.095.045.096.046.095.054.088.038.094.045.096.049.098.038.096.038.099.038.098.035.096.041.103.031.098.038.094.027.103.034.1.024.103.025.103.031.103.02.098.029.103.016.106.018.102.02.103.019.103.014.103.016.102.011.103.009.107.014.107.012.106.003.1.004.105.007.107v11.616m4.425-19.04h4.71v19.039h-4.71zm-56.152-.079h-18.852l-.11.004h-.107l-.099.003-.11.004-.1.004-.105.007-.107.012-.103.008-.11.007-.098.016-.107.011-.103.015-.107.016-.103.014-.103.02-.105.015-.096.023-.11.022-.1.02-.105.027-.096.022-.103.027-.106.027-.099.029-.103.031-.099.031-.103.034-.094.03-.103.039-.095.034-.099.038-.096.042-.103.038-.094.041-.091.042-.099.042-.091.045-.099.05-.092.046-.095.045-.092.054-.087.049-.094.054-.092.053-.087.054-.092.052-.084.062-.088.056-.091.058-.083.064-.085.061-.087.06-.083.065-.08.065-.08.065-.084.069-.084.067-.076.069-.079.072-.069.069-.083.076-.077.072-.072.076-.076.076-.065.076-.072.076-.073.078-.065.083-.067.08-.065.083-.069.076-.061.087-.064.081-.061.087-.061.084-.062.088-.06.091-.056.083-.051.092-.056.091-.054.088-.053.091-.05.094-.049.092-.045.096-.049.091-.043.094-.046.096-.045.099-.038.096-.042.098-.038.099-.034.095-.042.103-.031.099-.034.094-.027.103-.034.1-.022.103-.027.102-.035.099-.018.103-.027.102-.02.106-.014.1-.02.103-.022.105-.016.103-.011.103-.015.103-.003.107-.02.107-.007.105-.008.099-.003.107-.005.107-.004.106V35.24l4.703.051V23.85l.004-.103.004-.103.007-.103.012-.107.022-.105.016-.103.022-.1.035-.103.026-.101.042-.1.031-.094.049-.096.05-.094.049-.092.053-.091.054-.088.065-.084.06-.083.069-.081.068-.08.073-.076.076-.072.079-.071.08-.065.08-.065.083-.065.092-.057.084-.057.092-.053.094-.054.092-.049.095-.042.095-.043.103-.038.095-.033.106-.034.096-.031.102-.027.103-.029.103-.02.099-.018.107-.02.098-.011.107-.012.11-.011.099-.008.111-.003.098-.004h5.804v14.486h4.71V20.871h8.357v14.407h4.71v-19.11z"/><path fill="#E12D29" d="M298.309 15.75h-2.946 3.003-.057zm4.143-13.677h-7.071 3.006-7.001l-.03.031v2.768h7.002-3.003 7.137l.062.004.065.001.061.008.063.008.061.011.061.013.061.013.061.02.059.02.056.021.059.024.058.03.055.025.056.032.051.032.052.035.051.037.049.041.048.038.045.042.045.044.042.046.041.046.041.048.037.048.037.054.037.049.032.054.03.056.031.052.027.056.025.058.027.059.021.059.02.059.021.058.017.061.017.059.013.061.011.062.011.063.011.061.007.063.007.061.006.062.003.063.001.063v.88h-10.028v2.578h10.028v1.166l-.001.063-.008.061-.011.062-.014.062-.017.059-.024.058-.023.059-.027.055-.027.058-.031.054-.034.052-.035.052-.039.052-.037.048-.042.049-.042.044-.044.045-.045.044-.046.039-.046.044-.052.038-.049.035-.051.034-.052.034-.056.03-.054.032-.055.027-.058.03-.058.023-.059.024-.059.02-.056.018-.062.017-.062.014-.061.011-.061.011-.063.008-.061.007-.063.006h-7.207 3.002-6.998l-.001.062v2.689l.014.049h11.137l.063-.003.062-.001.062-.003.065-.001.062-.006.063-.006.059-.004.062-.006.062-.01.063-.008.062-.01.062-.008.062-.011.061-.011.059-.013.062-.014.061-.014.063-.015.061-.017.058-.015.061-.02.061-.017.059-.021.059-.018.059-.021.059-.021.058-.023.059-.021.058-.024.058-.027.053-.025.059-.025.055-.025.058-.028.056-.027.055-.031.055-.03.055-.03.052-.032.055-.032.052-.032.053-.031.052-.037.052-.034.051-.037.053-.038.048-.034.052-.037.049-.039.049-.038.048-.039.049-.041.045-.039.049-.042.046-.044.044-.044.045-.041.046-.045.044-.042.042-.046.042-.045.045-.044.041-.051.041-.046.039-.049.041-.046.039-.048.038-.049.037-.052.038-.048.034-.052.035-.051.035-.054.035-.052.031-.051.034-.055.032-.054.03-.056.031-.052.028-.056.031-.055.025-.059.027-.055.027-.058.024-.055.025-.061.024-.055.024-.059.021-.058.018-.059.023-.061.018-.056.018-.061.018-.062.014-.062.016-.059.014-.061.015-.061.011-.062.013-.062.007-.062.011-.059.007-.065.008-.062.007-.062.004-.062.003-.061.003-.063.004-.062.001-.065V6.86l-.001-.063-.004-.062-.003-.061-.003-.066-.003-.061-.004-.063-.004-.061-.008-.061-.004-.065-.01-.063-.007-.062-.007-.061-.013-.063-.007-.061-.013-.061-.01-.062-.013-.063-.014-.061-.016-.061-.013-.061-.016-.061-.023-.057-.014-.058-.018-.062-.018-.058-.021-.061-.02-.058-.02-.061-.021-.059-.023-.058-.022-.058-.021-.059-.024-.056-.028-.061-.025-.055-.025-.058-.028-.056-.027-.054-.03-.058-.03-.054-.031-.056-.03-.055-.032-.054-.031-.054-.034-.052-.035-.052-.034-.054-.031-.052-.037-.051-.037-.052-.038-.051-.038-.048-.038-.051-.038-.046-.041-.051-.039-.045-.041-.049-.042-.048-.042-.044-.042-.046-.042-.046-.046-.039-.046-.042-.044-.044-.046-.041-.046-.045-.046-.038-.049-.044-.046-.039-.052-.038-.046-.038-.052-.038-.049-.037-.051-.037-.052-.035-.051-.034-.053-.037-.053-.031-.049-.032-.055-.034-.056-.028-.054-.032-.053-.028-.056-.028-.055-.028-.058-.028-.056-.027-.059-.025-.056-.024-.059-.024-.055-.025-.059-.021-.059-.023-.058-.018-.061-.021-.058-.018-.063-.02-.059-.015-.061-.02-.061-.015-.062-.013-.059-.013-.061-.015-.061-.01-.062-.014-.061-.01-.062-.008-.063-.01-.062-.008-.061-.007-.062-.006-.063-.007-.062-.004-.067-.003-.062-.003-.062-.003-.062-.001h-.062z"/></svg>