<svg xmlns="http://www.w3.org/2000/svg" xmlns:xlink="http://www.w3.org/1999/xlink" width="106.643" height="16.1"><path fill="#024510" d="M-99.098-57.585l.013-.009-.068-.068a.88.88 0 01-.06-.064l-3.94-4.021 1.555 5.605.017-.009c.021.055.043.111.072.162a1.454 1.454 0 002.517-1.453c-.033-.054-.072-.096-.106-.143zm-.911 1.286a.482.482 0 11-.481-.839.482.482 0 11.481.839z"/><path fill="#024510" d="M-100.384-44.777c-6.892 0-12.5-5.607-12.5-12.5s5.607-12.5 12.5-12.5 12.5 5.607 12.5 12.5-5.607 12.5-12.5 12.5zm0-23.292c-5.951 0-10.792 4.841-10.792 10.792s4.841 10.792 10.792 10.792 10.792-4.841 10.792-10.792-4.841-10.792-10.792-10.792z"/><path fill="#024510" d="M-93.154-57.396h-1.708c0-.063-.001-.126-.003-.188l1.708-.051c.002.08.003.159.003.239zm-1.78-.906a5.617 5.617 0 00-.07-.352l1.664-.388c.036.153.066.308.092.465l-1.686.275zm-10.897-.006l-1.685-.282a6.99 6.99 0 01.093-.462l1.663.39a5.831 5.831 0 00-.071.354zm10.618-1.037a4.83 4.83 0 00-.138-.332l1.554-.709c.066.143.126.29.182.438l-1.598.603zm-10.335-.007l-1.597-.605c.056-.148.117-.293.182-.437l1.554.709c-.05.11-.097.221-.139.333zm9.855-.963a5.018 5.018 0 00-.2-.299l1.386-.998c.092.128.18.259.264.393l-1.45.904zm-9.375-.003l-1.447-.908c.084-.133.171-.263.263-.391l1.386.998a5.64 5.64 0 00-.202.301zm8.715-.855a5.09 5.09 0 00-.255-.254l1.166-1.248c.116.108.227.22.335.335l-1.246 1.167zm-8.053-.003l-1.245-1.169c.108-.115.219-.226.334-.333l1.167 1.247a5.13 5.13 0 00-.256.255zm7.239-.712a5.018 5.018 0 00-.299-.2l.903-1.45c.135.084.266.172.394.264l-.998 1.386zm-6.424-.002l-.996-1.388c.128-.092.259-.179.393-.263l.902 1.45a5.57 5.57 0 00-.299.201zm5.489-.539a5.7 5.7 0 00-.333-.139l.605-1.597c.147.056.293.116.435.181l-.707 1.555zm-4.552-.002l-.706-1.556c.143-.065.289-.125.437-.181l.603 1.598a5.205 5.205 0 00-.334.139zm3.53-.346a5.272 5.272 0 00-.354-.07l.278-1.685c.156.026.31.056.463.092l-.387 1.663zm-2.506-.002l-.388-1.664c.153-.036.308-.066.465-.092l.275 1.686c-.118.02-.236.043-.352.07zm1.432-.139a5.432 5.432 0 00-.361 0l-.054-1.707a7.46 7.46 0 01.473 0l-.058 1.707zm-5.708 5.522h-1.708c0-.08.001-.16.004-.239l1.708.051a3.93 3.93 0 00-.004.188z"/><path fill="#024510" d="M-91.288-57.773h-.854c0-4.544-3.697-8.242-8.241-8.242s-8.241 3.697-8.241 8.242h-.854c0-5.015 4.08-9.096 9.095-9.096 5.014 0 9.095 4.08 9.095 9.096zm-1.866 15.713h-14.46v-5.473h1.708v3.765h11.044v-3.765h1.708z"/><g fill="#024510"><path d="M-56.433-59.741l.121.292-1.756.791c-1.378.654-2.065 1.855-1.793 3.134.224 1.05 1.041 1.803 2.082 1.918l.058.006h16.37c1.404 0 2.546 1.189 2.546 2.65 0 1.363-1.042 2.531-2.34 2.641l-.023-.001a1.407 1.407 0 00-.183-.013h-16.333c-1.182 0-2.144.994-2.144 2.216 0 1.22.959 2.213 2.138 2.213h18.519c.115 0 .202.083.202.194 0 .109-.087.192-.202.192H-57.69c-1.404 0-2.546-1.165-2.546-2.597 0-1.381 1.059-2.519 2.411-2.593l.031-.002.031-.003.031-.004.042-.002h16.339c1.181 0 2.141-.994 2.141-2.217 0-1.107-.844-2.084-1.842-2.174a1.269 1.269 0 00-.299-.037h-16.072a2.87 2.87 0 01-2.833-2.287c-.312-1.469.448-2.837 1.986-3.581l.037-.013.047-.026 1.718-.781.035.084z"/><path d="M-39.172-42.683H-57.69c-1.858 0-3.37-1.535-3.37-3.422 0-1.819 1.402-3.319 3.191-3.416l.179-.012h16.339c.726 0 1.316-.624 1.316-1.392 0-.668-.51-1.3-1.091-1.353l-.124-.022a.408.408 0 00-.102-.013h-16.071a3.69 3.69 0 01-3.64-2.941c-.394-1.855.538-3.577 2.433-4.495l.101-.048 2.494-1.134.791 1.903-2.485 1.12c-1.015.483-1.517 1.311-1.326 2.211.15.707.674 1.193 1.366 1.27l16.337.001c1.858 0 3.37 1.559 3.37 3.475 0 1.794-1.359 3.315-3.094 3.463l-.065.005-.136-.011c-.025-.003-.05-.006-.075-.006h-16.333c-.728 0-1.32.624-1.32 1.391 0 .766.589 1.389 1.313 1.389h18.519c.566 0 1.027.457 1.027 1.019a1.022 1.022 0 01-1.026 1.018z"/></g><path fill="#024510" d="M-53.38-57.306c-.141 0-.277-.026-.406-.078a1.101 1.101 0 01-.595-.584l-2.053-4.816a1.09 1.09 0 01.574-1.428l2.968-1.264a1.088 1.088 0 011.427.573l.023.054 3.671-1.178a1.072 1.072 0 011.316.601l.889 2.088a1.068 1.068 0 01-.478 1.366l-3.39 1.831.023.053a1.084 1.084 0 01-.574 1.428l-2.968 1.265a1.082 1.082 0 01-.427.089zm-.883-2.725l.726 1.704a.184.184 0 00.096.094.18.18 0 00.131-.003l2.968-1.265a.17.17 0 00.092-.094.17.17 0 00-.001-.131l-.351-.821 4.126-2.23a.157.157 0 00.07-.201l-.89-2.088a.158.158 0 00-.194-.088l-4.466 1.432-.35-.821a.17.17 0 00-.093-.091.164.164 0 00-.132.001L-55.5-63.37a.171.171 0 00-.09.226l1.327 3.113zm15.845-4.704c-.111.163-.015.318.184.301.558-.05 1.204.017 1.661-.252.393-.231.554-.672.299-1.107-.255-.434-.721-.509-1.113-.277-.458.269-.715.871-1.031 1.335m-1.711-2.822c-.11.163-.015.318.184.301.559-.049 1.205.017 1.661-.252.394-.231.555-.673.299-1.107-.255-.434-.72-.509-1.113-.277-.458.27-.714.871-1.031 1.335m-1.778 2.662c-.11.163-.015.318.184.301.559-.049 1.205.017 1.661-.252.394-.231.555-.673.299-1.107-.255-.434-.72-.509-1.113-.277-.458.269-.714.87-1.031 1.335m-1.719-2.884c-.11.163-.015.318.184.301.559-.049 1.205.017 1.661-.252.394-.231.555-.673.299-1.107-.255-.434-.72-.509-1.113-.277-.458.27-.714.871-1.031 1.335m1.719-2.629c-.11.163-.015.318.184.3.558-.049 1.204.018 1.661-.25.394-.232.554-.674.299-1.108-.255-.434-.721-.509-1.113-.277-.458.271-.715.872-1.031 1.335m-2.875 5.258c-.11.163-.015.318.184.301.559-.049 1.205.017 1.661-.252.394-.231.555-.673.299-1.107-.255-.434-.72-.509-1.113-.277-.458.27-.714.871-1.031 1.335M4.432-54.459l-16.326-.014c-1.362-.182-3.921-1.456-3.855-4.977.129-1.891 1.438-3.963 4.01-4.147.089-.004.202-.006.333-.003.205-1.622 1.067-4.022 4.276-4.847.326-.065 2.795-.491 4.753.92a4.732 4.732 0 011.365 1.523c.286-.079.572-.129.857-.149a4.961 4.961 0 013.802 1.384 4.876 4.876 0 011.198 1.901c.213-.017.418-.02.612-.007 1.773.119 3.633 1.338 3.792 3.795a4.58 4.58 0 01-3.389 4.443l-.286.057-1.142.121zm-16.145-1.731l16.055.007 1.068-.118c1.717-.52 2.136-1.99 2.117-2.7-.125-1.917-1.842-2.13-2.185-2.153a3.224 3.224 0 00-.934.1l-.894.213-.156-.905a3.246 3.246 0 00-.917-1.79 3.225 3.225 0 00-2.48-.896 2.863 2.863 0 00-1.045.293l-.858.413-.326-.895c-.233-.64-.598-1.133-1.117-1.507-1.394-1.004-3.347-.642-3.367-.638-2.611.674-2.995 2.866-2.987 4.113l.007 1.065-1.043-.216a3.854 3.854 0 00-.869-.072c-2.196.157-2.376 2.405-2.382 2.501-.05 2.65 1.966 3.123 2.313 3.185z"/><path fill="#024510" d="M-10.668-59.06l-.847-.159c.201-1.074 2.207-1.322 3.48-1.369-.254-1.703.924-2.994 1.653-3.472l.473.721-.236-.36.237.36c-.072.048-1.771 1.204-1.176 3.041l.182.563h-.592c-1.539-.001-3.111.334-3.174.675zm8.091 12.491a2.68 2.68 0 01-2.652-2.823c.015-.331.11-.69.29-1.097.503-1.134 1.29-2.179 1.993-3.052l.357-.443.33.464-.327.269.334-.26.092.118c.757.973 1.54 1.978 1.995 3.217a2.704 2.704 0 01-.401 2.578c-.496.654-1.237 1.029-2.011 1.029zm-.036-6.003c-.57.733-1.152 1.564-1.537 2.432-.134.302-.207.567-.217.787a1.821 1.821 0 001.665 1.916c.547.045 1.091-.21 1.451-.683.39-.513.495-1.171.278-1.759-.368-.999-.977-1.835-1.64-2.693zm4.354 11.721a2.366 2.366 0 01-2.342-2.492c.014-.293.097-.609.255-.966.435-.983 1.116-1.886 1.724-2.64l.357-.442.33.463-.331.266.335-.261.078.1c.655.841 1.332 1.711 1.727 2.786a2.385 2.385 0 01-.354 2.276c-.439.579-1.094.91-1.779.91zm-.032-5.128c-.473.612-.949 1.301-1.268 2.02-.112.254-.174.475-.182.657a1.508 1.508 0 001.378 1.586c.462.04.895-.168 1.196-.564.324-.425.41-.97.231-1.457-.304-.83-.805-1.529-1.355-2.242zm-10.3-1.152a1.695 1.695 0 01-1.68-1.785c.01-.211.069-.435.18-.685.291-.658.743-1.258 1.146-1.758l.352-.437.331.453-.334.266.337-.262.053.068c.434.558.883 1.134 1.148 1.858a1.707 1.707 0 01-.253 1.629 1.609 1.609 0 01-1.28.653zm-.02-3.254a6.04 6.04 0 00-.692 1.134 1.085 1.085 0 00-.106.375.835.835 0 00.763.88.742.742 0 00.65-.31.849.849 0 00.129-.81c-.169-.461-.44-.865-.744-1.269z"/><path fill="#FFF" d="M40.851-47.875c-5.514 0-10-4.486-10-10s4.486-10 10-10 10 4.486 10 10-4.486 10-10 10zm0-19.648c-5.32 0-9.648 4.328-9.648 9.648s4.328 9.648 9.648 9.648c5.32 0 9.648-4.328 9.648-9.648s-4.328-9.648-9.648-9.648z"/><defs><circle id="a" cx="40.853" cy="-57.876" r="9.914"/></defs><clipPath id="b"><use xlink:href="#a" overflow="visible"/></clipPath><g clip-path="url(#b)" fill="#FFF"><path d="M32.183-63.095c-.113.82.17 1.245 0 1.641-.17.396-.368 1.103-.198 1.584.17.481.424 1.527.651 1.556.226.028-.17-1.131.057-.764.226.368.226.915.622 1.292s.933.32 1.358.688c.424.368.849.905 1.245.849 0 0-.028.283-.226.764-.198.481-.226 1.047.028 1.386.255.339.509.849.735 1.103.226.255.396 1.612.339 2.291-.057.679.255 2.206.962 2.546.707.339 0-.17-.141-.594-.141-.424.109-1.414.451-1.556.341-.141.652-.707.907-1.103s.905-.566 1.103-1.047c.198-.481.113-1.047.226-1.301.113-.255.424-.82-.255-1.16-.679-.339-.962-.17-.99-.481-.028-.311-.198-.651-.679-.792-.481-.141-.905-.416-1.443-.477-.537-.061-.651.364-.933.137-.283-.226-.509-.453-.622-.735-.113-.283-.453-.113-.424-.283.028-.17.481-.651-.028-.481-.509.17-.962.113-.933-.339.028-.453.651-.622.905-.679s.453.255.764.453.028-.283.198-.622.82-.311.905-.792c.085-.481-.028-.877.481-.933.509-.057 1.047.028 1.103-.226.057-.255-.594.085-.622-.226-.028-.311.566-.735.735-.424.17.311.594.339.651.226.057-.113 0-.311-.198-.792-.198-.481-.396-.339-.566-.877-.17-.537-.453.028-.735-.255-.283-.283-.622-.877-.679-.368-.057.509-.057.792-.311 1.188-.255.396-.368.085-.594-.17-.226-.255-.735-.509-.566-.735.17-.226.339-.82.594-.651.255.17.651.17.594-.113-.057-.283 0-.396.113-.537.113-.141.509-.396.509.113s-.057.651.339.707c.396.057.849.085.82-.17-.028-.255.113-.198 0-.622s-.453-.453-.82-.651c-.368-.198-.566-.509-.877-.396-.311.113-.339.226-.368.537-.028.311-.198.424-.311.283-.113-.141.028-.594-.396-.311-.424.283-.594.764-.82.424-.226-.339.339-.933-.255-.679-.594.255-1.018.537-.707.651.311.113.622.311.311.424-.311.113-.933-.085-1.16.141-.226.227-.849 1.358-.849 1.358z"/><path d="M35.521-66.15c-.002.316.085.566.368.283s.453-.622.651-.481c.198.141.537.104.679.094.141-.01.17-.434.566-.377.396.057.255-.085.679-.311.424-.226 1.329-.622.396-.509-.933.113-.99-.141-1.641.283-.651.424-.792.424-.962.537-.17.113-.368-.339-.594 0-.227.34-.14.159-.142.481zm3.394-.877c-.334.289-.849.707-.453.707.396 0 .588-.207.803.066.215.273.13.698.13.896 0 .198-.113.651.17 1.216.283.566.311.933.594.566.283-.368.962-1.075 1.301-1.131.339-.057.679-.198.849-.481.17-.283 0-.557.283-.76.283-.202.226-.457.311-.768.085-.311.849-.311.509-.481-.339-.17-.962-.283-1.697-.198-.735.085-2.177-.169-2.8.368zm-3.111 8.741c-.18.293-.085.311.113.368.198.057-.085.396.141.424.226.028.735.17.877 0 .141-.17-.226-.103-.481-.292-.254-.189-.522-.709-.65-.5zm15.303-.142c-.085-.481-.707-4.837-.707-4.837s-1.669-1.075-1.952-.849c-.283.226-.764.192-.707-.031.057-.223.424-.167-.198-.591-.622-.424-.735-.792-1.216-.255s-.594.99-.877 1.131c-.283.141-.509.594-.198.707.311.113.339 0 .594.226.255.226.594.17.651.028.057-.141.113-.594.141-.764.028-.17.316-.735.285-.283-.031.453.394.453.111.764-.283.311-.113.566-.679.622-.566.057-.594-.283-.905-.113-.311.17-.283.283-.396.453-.113.17-.707.509-.707.509s-.481-.17-.255.141c.226.311.424.679.226.707-.198.028-.735-.283-.735.057 0 .339-.085.707.141.792.16.06.263.19.41.171a.722.722 0 00-.297.225c-.22.288-.085.792-.537.962-.453.17-.453.368-.537.735-.085.368 0 1.301.113 1.386.113.085.311.792.792.735.481-.057.99-.078 1.16.003.17.082.453-.173.537.478.085.651.283.735.396 1.075.113.339-.057 1.047 0 1.471.057.424.453 1.16.453 1.527 0 .368.424.537.651.396.226-.141.707-.424.905-.877.198-.453.198-.679.509-1.273.311-.594.226-1.018.368-1.471.141-.453.482-.764.948-1.273.466-.509.382-.792 0-.764-.382.028-.637-.339-.835-.792-.198-.453-.424-1.584-.254-1.216.17.368.509 1.386.849 1.556.339.17.962-.288 1.103-.455.141-.167.085-.648-.283-.846-.368-.198-.141-.368.226-.141.366.229.791.455.706-.026z"/><path d="M44.29-63.18c-.173.052-.311.396-.226.566.085.17-.085-.085-.311.057-.226.141-.563.537-.253.566.31.028.253-.226.536-.113.283.113.594.085.594-.198-.001-.284-.057-.963-.34-.878zm-1.839-1.301c-.17.024-.226.453.141.509.368.057 1.026-.085.782-.311-.244-.226-.527-.255-.923-.198z"/></g><path fill="#1B171B" d="M88.701-60.917a3.38 3.38 0 110-6.76 3.38 3.38 0 010 6.76m0-15.368c-6.904 0-12.501 5.597-12.501 12.501 0 7.38 12.501 21.638 12.501 21.638S101.2-55.854 101.2-63.784c0-6.904-5.596-12.501-12.499-12.501"/><g fill="#05070B"><path d="M-104.446 8.319a.943.943 0 01-.951.934c-.525 0-.951-.418-.951-.934s.426-.934.951-.934a.944.944 0 01.951.934m-2.758-8.185h-9.489l-.042.001h-.041l-.042.002-.043.001-.042.004-.042.004-.04.003-.041.003-.043.006-.042.007-.042.006-.041.006-.041.008-.041.007-.041.008-.041.009-.041.009-.042.01-.04.011-.041.011-.04.012-.04.012-.04.013-.039.013-.04.014-.039.014-.04.014-.038.016-.04.015-.038.017-.038.017-.038.017-.038.016-.037.019-.039.018-.037.02-.036.019-.036.02-.037.02-.037.022-.034.022-.036.02-.036.024-.034.023-.034.024-.036.024-.033.023-.034.025-.032.024-.035.027-.031.025-.033.027-.031.026-.032.028-.032.028-.029.028-.03.027-.031.03-.03.029-.028.031-.029.028-.029.03-.028.032-.027.031-.027.033-.028.03-.025.033-.027.033-.024.032-.026.034-.023.034-.024.032-.024.036-.023.035-.02.033-.023.036-.022.035-.019.037-.021.034-.02.036-.02.038-.019.038-.017.036-.018.038-.017.036-.015.04-.016.037-.016.038-.015.039-.013.039-.014.039-.013.038-.012.041-.011.04-.01.04-.011.039-.009.041-.01.04-.008.039-.008.041-.006.041-.007.04-.005.042-.005.041-.004.041-.003.041-.003.039-.002.042-.002.041-.001.042V5.99l.001.043.002.04.001.04.003.043.003.041.001.041.004.041.005.039.003.043.007.04.005.042.004.04.009.042.005.039.008.041.007.04.009.042.01.039.009.04.009.041.01.04.012.039.011.04.011.039.014.038.012.04.013.039.014.039.014.039.016.038.015.038.014.038.015.038.019.039.017.037.018.038.018.038.018.034.02.038.02.036.021.037.02.036.021.035.021.035.023.035.022.034.024.036.021.035.025.032.024.034.026.035.026.031.025.034.026.03.026.033.027.031.029.031.027.031.028.029.029.03.029.032.03.028.03.028.03.029.032.027.03.029.031.026.034.027.032.027.032.025.033.025.034.026.033.023.035.024.034.023.035.024.036.024.036.02.035.022.035.021.037.02.037.021.037.017.036.021.038.018.038.017.039.019.038.016.039.016.038.016.038.016.039.014.04.015.039.013.04.013.04.012.042.013.04.011.04.012.04.009.042.009.04.01.041.01.041.007.041.007.041.007.042.007.042.006.041.005.042.004.042.004.041.005.042.003.043.001.042.002.041.002h9.574l.021-.019V7.301h-9.532l-.042-.002-.043-.002-.042-.004-.041-.006-.042-.007-.04-.009-.04-.01-.04-.012-.041-.013-.038-.014-.039-.016-.039-.019-.037-.017-.036-.021-.035-.021-.035-.023-.034-.025-.034-.025-.032-.027-.031-.027-.029-.029-.029-.031-.027-.03-.027-.031-.026-.033-.024-.034-.024-.034-.022-.035-.021-.036-.019-.035-.018-.037-.018-.038-.017-.039-.014-.038-.014-.04-.014-.037-.011-.04-.011-.039-.009-.041-.009-.041-.006-.042-.007-.039-.005-.041-.006-.041-.002-.04-.003-.042v-.041l-.001-.042v-.538h8.793v-1.7h-8.793V2.95l.001-.041.005-.042.008-.039.01-.041.012-.038.014-.04.016-.037.018-.037.019-.038.02-.035.023-.035.024-.034.025-.034.025-.032.029-.031.028-.031.029-.028.029-.028.033-.027.031-.028.034-.026.034-.023.034-.023.035-.022.036-.02.038-.021.038-.018.037-.019.04-.015.038-.015.04-.013.04-.013.041-.01.04-.011.04-.007.042-.007.041-.005.042-.005.043-.003.042-.001h9.531l.001-.041V.165l-.009-.031zm57.982 9.091l-.042.009-.042.004h-.089l-.05.007h-.085l-.05.009h-4.461l-.047-.009h-.131l-.042-.007h-.087l-.047-.004-.046-.009h-.046l-.047-.004-.041-.008-.038-.004-.046-.004-.047-.012h-.042l-.042-.008-.046-.008-.043-.008-.042-.008-.047-.012-.041-.003-.042-.012-.047-.008-.042-.015-.042-.005-.046-.011-.043-.012-.042-.012-.041-.012-.047-.012-.038-.019-.042-.012-.042-.011-.047-.012-.037-.016-.038-.016-.041-.019-.042-.012-.047-.016-.038-.019-.037-.012-.042-.016-.039-.02-.041-.016-.038-.023-.046-.016-.039-.019-.037-.016-.041-.019-.034-.027-.038-.016-.038-.019-.037-.02-.042-.024-.033-.023-.038-.02-.037-.024-.03-.022-.038-.019-.037-.024-.039-.027-.033-.024-.034-.023-.038-.024-.037-.027-.029-.023-.037-.028-.034-.027-.033-.024-.033-.027-.038-.027-.029-.031-.033-.024-.033-.027-.034-.027-.029-.032-.033-.027-.033-.027-.017-.02-.025-.023-.029-.032-.038-.035-.025-.023-.033-.032-.026-.031-.029-.036-.029-.027-.025-.031-.035-.034-.029-.039-.026-.028-.029-.032-.026-.039-.029-.028-.026-.039-.025-.031-.026-.031-.025-.035-.029-.036-.021-.031-.021-.035-.025-.04-.021-.031-.026-.036-.021-.036-.021-.039-.019-.034-.021-.035-.021-.039-.025-.035-.022-.036-.02-.04-.017-.035-.017-.04-.021-.036-.016-.043-.022-.035-.016-.035-.017-.04-.012-.043-.017-.035-.012-.036-.016-.043-.017-.035-.012-.04-.012-.043-.012-.038-.021-.04-.009-.043-.013-.035-.008-.04-.013-.043-.012-.031-.009-.047-.012-.04-.009-.04-.009-.043-.008-.039-.012-.04-.005-.042-.012-.04-.005-.047-.004-.036-.013-.039v-.038l-.008-.036-.009-.047v-.035l-.004-.051-.005-.035-.008-.043v-.129l-.009-.04v-.976l.009-.04v-.125l.008-.043.005-.043.004-.035v-.044l.009-.04.004-.047.004-.035.005-.043.009-.043.009-.04.009-.039.009-.04.004-.043.012-.04.004-.039.013-.043.005-.043.016-.036.005-.042.017-.04.012-.04.008-.043.018-.036.012-.039.009-.043.016-.043.012-.035.017-.035.016-.04.009-.043.021-.036.017-.043.016-.035.018-.039.016-.036.021-.04.017-.04.016-.035.021-.039.021-.035.017-.04.021-.035.021-.032.021-.043.017-.035.021-.036.029-.031.02-.04.017-.035.025-.036.03-.035.021-.039.025-.032.021-.035.029-.036.025-.031.026-.032.025-.035.026-.032.029-.035.026-.027.029-.036.025-.035.033-.032.026-.031.029-.032.026-.035.033-.027.033-.028.026-.031.033-.035.026-.024.033-.032.016-.012.034-.031.029-.027.033-.029.033-.03.033-.032.029-.023.033-.032.038-.023.033-.023.034-.027.029-.027.033-.019.039-.02.038-.027.037-.023.033-.023.038-.028.033-.023.037-.02.038-.023.038-.024.038-.024.037-.019.038-.024.037-.019.038-.023.037-.02.038-.019.043-.023.037-.016.038-.019.038-.02.037-.016.047-.02.038-.019.042-.015.037-.02.042-.012.038-.019.046-.02.038-.012.042-.012.042-.019.038-.012.046-.011.043-.016.041-.016.038-.011.046-.012.043-.011.042-.012.046-.008.042-.012.042-.012.038-.007.046-.012.047-.012.038-.004.046-.008.042-.012.042-.004.05-.009.042-.011h.042l.046-.008.042-.005.043-.003.046-.009.047-.004.038-.004h.05l.043-.004.046-.004h.041l.043-.004h.05l.042-.008h4.556l.05.008h.089l.047.004h.037l.05.004.042.004.042.004.046.004.047.005.037.004.05.008h.042l.046.008.042.004.043.007.046.012.042.007.042.005.047.012.041.008.043.012.046.008.042.012.038.004.042.012.05.016.042.012.042.012.038.012.047.016.041.012.043.009.037.019.046.012.043.012.037.019.042.016.037.016.047.016.037.019.042.012.042.023.038.012.037.023.038.016.038.016.046.019.038.024.038.019.037.023.042.019.038.02.037.024.039.019.037.023.033.023.038.02.037.023.038.023.033.019.038.032.033.024.037.023.029.02.039.031.038.028.029.023.037.027.033.023.029.032.038.027.034.028.033.023.033.031.029.024.033.031.025.031.017.016.033.027.029.027.03.032.033.031.025.032.033.031.03.031.029.028.029.032.026.035.029.035.026.028.029.035.026.032.026.031.029.039.026.032.024.031.026.036.022.031.029.04.02.039.026.032.021.031.025.04.021.035.021.036.022.035.016.04.025.036.016.038.022.032.021.039.016.04.026.032.012.043.026.04.013.031.016.043.016.036.022.043.016.039.012.036.016.035.013.043.017.04.012.04.016.039.009.035.017.047.012.04.009.04.012.035.012.043.009.039.012.04.009.043.009.035.009.043.012.043.004.035.004.043.013.043.005.043.004.04.008.039.009.043v.043l.008.04.005.043.004.036v.086l.005.043v.029l.008.04v1.019l-.008.043v.043l-.005.036v.047l-.004.038v.044l-.005.043-.008.036-.005.047-.005.035-.012.048v.035l-.009.043-.009.043-.004.04-.012.04-.004.043-.017.043-.004.04-.012.04-.009.039-.02.035-.008.04-.017.043-.012.035-.005.043-.016.039-.017.035-.009.044-.012.039-.017.039-.016.039-.016.04-.013.039-.016.039-.017.04-.017.035-.021.04-.012.035-.021.036-.016.04-.022.035-.017.043-.02.036-.021.039-.021.036-.022.031-.027.04-.021.035-.016.032-.026.035-.021.039-.029.036-.021.036-.021.035-.025.036-.026.027-.025.039-.026.036-.025.032-.026.035-.033.031-.021.035-.034.032-.025.031-.029.036-.026.032-.029.031-.025.031-.033.032-.026.027-.031.029-.034.031-.024.031-.034.024-.034.036-.008.011-.033.032-.034.023-.029.032-.033.027-.033.027-.038.023-.025.032-.038.027-.034.024-.033.027-.038.028-.034.027-.037.019-.029.032-.033.023-.039.023-.037.02-.033.023-.038.027-.038.023-.042.024-.029.019-.038.023-.037.024-.042.019-.038.016-.038.026-.037.016-.038.024-.042.019-.037.019-.039.02-.046.016-.038.02-.037.016-.043.019-.037.012-.041.02-.047.011-.037.019-.039.016-.041.016-.043.016-.046.008-.038.019-.042.012-.042.016-.047.012-.038.012-.041.012-.042.012-.047.009-.042.016-.042.003-.047.012-.037.012-.047.013-.047.008-.038.009-.046.007-.047.009-.042.008-.042.004-.041.008-.047.006h-.041l-.05.004-.038.008-.046.004h-.047zm0-7.328h-.042l-.042-.008-.046-.008-.043-.005h-.135l-.05-.008h-4.496l-.046.008h-.085l-.05.005-.038.004-.047.004-.046.008-.036.003-.042.005-.047.008-.042.016h-.041l-.047.008-.047.016-.037.012-.047.007-.042.02-.042.004-.037.016-.043.011-.046.02-.037.016-.043.016-.036.014-.037.019-.046.016-.038.019-.043.023-.033.016-.038.019-.037.02-.038.023-.037.024-.038.023-.038.023-.038.028-.033.023-.037.024-.029.027-.033.024-.034.023-.037.032-.029.032-.029.023-.033.032-.009.008-.029.028-.029.031-.033.032-.029.031-.025.031-.033.028-.021.035-.034.036-.025.027-.021.04-.029.027-.021.039-.026.036-.025.031-.021.035-.021.04-.021.035-.021.035-.021.039-.021.036-.017.035-.016.043-.017.039-.016.039-.018.032-.016.043-.016.04-.014.035-.017.043-.012.043-.009.036-.012.043-.009.035-.009.043-.008.043-.013.04-.004.043-.005.036-.008.047-.009.039v.043l-.004.039v.04l-.008.043v.886l.008.042v.04l.004.043v.083l.009.039.008.04.009.043v.043l.013.035.008.043.009.044.009.034.012.043.009.039.017.04.012.043.016.039.009.04.016.031.022.043.016.04.013.035.021.036.016.043.021.032.022.043.021.035.016.039.021.04.029.027.02.035.026.04.026.027.026.04.02.036.034.031.025.031.021.036.034.031.029.032.029.027.029.032.034.031.029.032.009.003.029.032.034.023.033.032.034.023.029.032.037.023.034.028.038.027.033.023.033.019.038.027.038.02.038.019.038.023.037.016.038.027.038.016.042.024.037.015.043.016.037.019.038.02.037.016.047.016.042.016.043.008.037.016.046.016.043.012.041.012.047.012.042.008.042.012.038.008.05.009.043.008.046.004.042.007h.043l.046.005.041.008h.043l.05.008h.084l.046.004h4.418l.042-.004h.092l.042-.008h.042l.046-.008.047-.005.037-.007h.051l.042-.012.046-.005.042-.008.042-.007.042-.009.047-.016.037-.011.042-.013.042-.012.047-.012.042-.012.042-.012.037-.016.047-.016.038-.019.042-.019.042-.016.033-.012.042-.019.038-.019.038-.023.041-.024.038-.019.038-.019.037-.023.038-.024.038-.019.029-.027.038-.027.033-.023.038-.025.034-.027.034-.028.028-.03.039-.023.029-.028.034-.027.008-.009.029-.035.029-.023.034-.032.02-.031.034-.031.025-.032.033-.035.022-.032.029-.032.025-.035.029-.036.022-.031.024-.035.022-.035.025-.036.022-.039.02-.04.021-.031.021-.04.021-.036.018-.039.02-.036.017-.039.012-.043.017-.031.016-.043.009-.039.021-.039.012-.043.009-.036.012-.039.013-.04.009-.042.004-.04.012-.04.005-.043.012-.043.004-.039.009-.04.004-.043v-.039l.009-.047v-1.09l-.009-.043V4.05l-.004-.043-.009-.043-.004-.035-.012-.044-.005-.039-.012-.047-.004-.036-.017-.038-.005-.04-.016-.043-.009-.04-.012-.043-.017-.035-.016-.043-.018-.035-.008-.039-.016-.036-.021-.039-.017-.039-.017-.036-.021-.039-.021-.036-.021-.039-.025-.036-.021-.035-.026-.039-.017-.032-.025-.035-.025-.036-.026-.032-.029-.035-.02-.032-.029-.031-.029-.035-.026-.031-.029-.032-.029-.031-.029-.036-.034-.023-.029-.032-.009-.004-.029-.031-.034-.028-.033-.027-.033-.028-.029-.027-.038-.027-.033-.023-.038-.031-.037-.024-.029-.019-.038-.024-.038-.023-.039-.023-.037-.019-.038-.024-.037-.019-.038-.02-.037-.023-.042-.016-.052-.015-.042-.019-.046-.012-.037-.019-.043-.019-.038-.012-.042-.011-.046-.016-.038-.012-.042-.012-.042-.011-.047-.012-.042-.012-.042-.008-.046-.012-.042-.004-.042-.008-.045-.009zM-86.694.723v5.518l.002.041v.041l.004.04.004.041.009.042.007.041.01.038.013.041.01.039.016.039.014.038.018.037.02.038.021.035.02.035.023.035.025.034.025.033.026.03.028.032.029.03.029.028.034.027.031.027.033.025.033.025.036.023.033.023.036.02.038.021.037.019.038.017.038.015.042.016.038.014.041.012.038.012.042.012.041.01.041.008.039.008.042.008.041.004.043.004.043.005.04.003.044.002h8.325V2.251h1.882v7.002h-10.16l-.044-.001h-.043l-.04-.002-.043-.001-.04-.002-.043-.003-.043-.004-.04-.003-.044-.003-.041-.007-.042-.003-.041-.006-.041-.007-.042-.006-.041-.007-.042-.006-.039-.009-.043-.009-.04-.008-.042-.009-.038-.01-.042-.01-.043-.011-.039-.011-.041-.012-.039-.013-.041-.013-.038-.012-.042-.014-.038-.014-.039-.014-.037-.017-.042-.015-.038-.016-.036-.017-.04-.017-.036-.018-.04-.018-.035-.019-.039-.018-.036-.02-.036-.019-.038-.021-.036-.022-.035-.02-.036-.022-.035-.024-.034-.022-.037-.022-.033-.024-.034-.025-.035-.024-.033-.025-.032-.026-.032-.025-.034-.027-.032-.026-.03-.028-.032-.028-.028-.028-.034-.029-.03-.028-.03-.029-.029-.03-.026-.03-.029-.031-.028-.029-.027-.033-.027-.031-.026-.032-.028-.031-.024-.034-.026-.032-.024-.035-.024-.032-.025-.034-.023-.035-.024-.034-.019-.036-.023-.035-.021-.034-.021-.037-.021-.036-.019-.037-.018-.037-.02-.036-.016-.037-.019-.037-.019-.038-.014-.038-.017-.038-.015-.04-.013-.037-.017-.039-.012-.039-.015-.038-.011-.04-.014-.039-.009-.041-.01-.039-.013-.04-.008-.04-.011-.04-.007-.041-.007-.04-.007-.041-.008-.041-.007-.039-.005-.042-.005-.039-.003-.042-.007-.042-.003-.041-.003-.04-.001-.041-.002-.042-.001-.042V.701"/><path d="M-77.047 2.94v7.203c0 .162-.034.314-.092.454a1.17 1.17 0 01-.431.515 1.21 1.21 0 01-.668.199h-5.409v1.848h5.409c.421 0 .83-.085 1.198-.238a3.066 3.066 0 001.35-1.093c.331-.48.528-1.065.526-1.686V2.94h-1.883zm-18.777 3.2V3.121a1.17 1.17 0 01.526-.969c.194-.126.417-.199.67-.199h3.971V.103h-3.971c-.422 0-.832.086-1.2.239a3.064 3.064 0 00-1.352 1.093 2.963 2.963 0 00-.526 1.685v3.02h1.882z"/><path d="M-97.71 4.827v1.296c0 .164-.036.315-.096.453a1.152 1.152 0 01-.431.517 1.209 1.209 0 01-.67.199h-4.69v1.849h4.69c.423 0 .831-.085 1.2-.237a3.065 3.065 0 001.352-1.093 2.947 2.947 0 00.527-1.687V4.827h-1.882zm35.547-1.825V6.24c0 .166-.033.313-.092.449-.092.2-.239.376-.452.506-.213.13-.49.217-.837.217h-8.318V9.26h8.318c.45 0 .88-.078 1.274-.226a3.116 3.116 0 001.443-1.09c.35-.486.547-1.08.547-1.703V3.002h-1.883z"/><path d="M-72.978-7.607h1.883V9.259h-1.883zm2.864 9.553h6.76c.165 0 .319.034.462.092a1.16 1.16 0 01.728 1.078V5.49h1.885V3.117A2.999 2.999 0 00-61.636.616a3.091 3.091 0 00-1.718-.517h-6.76v1.847zm38.828-.517a.206.206 0 00.043-.3l-.862-1.083a.238.238 0 00-.319-.045l-4.885 3.449a.334.334 0 01-.362 0L-42.558.001a.238.238 0 00-.319.045l-.862 1.083a.206.206 0 00.043.3l4.443 3.136c.1.071.1.185 0 .256l-4.443 3.136a.206.206 0 00-.043.3l.862 1.083c.076.095.22.115.319.045l4.887-3.449a.336.336 0 01.362.001l4.885 3.448c.1.07.243.05.319-.045l.862-1.083a.206.206 0 00-.043-.3l-4.443-3.136c-.099-.071-.099-.185 0-.256l4.443-3.136zm-55.409.567V.091h-1.877v1.905"/></g><g fill="#05070B"><path d="M18.438 10.153a1.145 1.145 0 11-2.29.001 1.145 1.145 0 012.29-.001M15.114.094H3.673l-.051.002-.05.001-.051.001L3.47.1l-.051.005-.05.004-.05.004-.049.005-.051.008-.05.006-.051.008-.05.007-.048.01-.051.009-.049.01-.049.01-.049.013-.051.012-.049.012-.048.015-.05.014-.047.016-.048.015-.047.015-.049.018-.048.016-.046.019-.048.018-.047.019-.046.021-.045.02-.047.021-.045.022-.046.023-.046.022-.044.024-.044.023-.044.026-.044.024-.045.027-.04.026-.044.026-.043.029-.042.028-.042.029-.041.029-.041.03-.041.029-.039.03-.04.033-.039.031-.039.034-.038.032-.04.034-.037.035-.035.034-.038.034-.036.035-.035.036-.035.037-.034.037-.037.036-.033.04-.033.036-.031.041-.034.038-.031.04-.031.039-.03.041-.031.04-.028.042-.029.041-.028.043-.029.044-.024.04-.027.044-.027.043-.024.046-.025.043-.022.043-.025.046-.022.047-.021.046-.023.046-.019.043-.02.05-.019.046-.018.045-.018.048-.017.05-.016.047-.016.046-.014.049-.014.051-.012.049-.013.048-.011.05-.013.049-.008.049-.009.051-.008.049-.009.049-.007.052-.006.05-.004.051-.004.049-.003.049-.002.051L0 3.496v3.847l.004.049.002.05.002.053.003.05.004.051.003.049.005.049.006.052.007.05.005.051.006.049.011.051.005.05.011.048.008.05.011.052.011.048.012.049.01.05.014.048.013.051.013.047.014.049.015.047.016.048.016.048.016.049.017.048.018.046.019.047.018.047.018.047.023.048.02.045.021.046.023.046.021.044.025.046.023.043.025.045.025.044.025.045.025.042.028.044.027.04.028.045.027.042.029.04.029.043.031.041.032.039.031.041.03.038.032.04.032.038.035.039.033.038.033.036.035.037.035.037.037.036.035.034.037.036.039.033.037.036.036.032.04.034.039.032.04.032.039.03.042.031.039.029.041.029.043.028.041.03.043.029.043.024.042.028.044.025.044.025.045.026.043.023.046.023.044.023.047.022.046.021.046.021.047.019.047.02.046.02.046.017.047.018.048.016.049.017.047.014.051.015.048.015.049.015.048.011.05.011.049.012.049.012.049.008.051.011.049.007.051.008.05.007.05.006.05.007.05.004.05.007.051.001.051.004.051.002.05.001h11.543l.025-.023V8.901H3.684l-.05-.003-.052-.001-.051-.006-.05-.007-.049-.01-.05-.009-.048-.012-.048-.014-.049-.017-.046-.017-.047-.02-.047-.024-.046-.021-.043-.025-.042-.026-.043-.028-.042-.031-.039-.032-.039-.032-.037-.033-.035-.036-.035-.037-.034-.038-.032-.038-.031-.041-.029-.042-.028-.04-.027-.044-.024-.044-.025-.044-.021-.046-.021-.046-.021-.048-.018-.047-.017-.048-.015-.047-.014-.048-.013-.049-.011-.049-.011-.05-.008-.052-.007-.048-.007-.05-.007-.052-.003-.048-.002-.051-.002-.051v-.713h10.601V4.497H2.268v-.941l.002-.053.005-.049.01-.049.011-.05.014-.048.018-.048.02-.046.02-.047.024-.044.024-.043.028-.043.029-.042.03-.042.03-.038.035-.04.034-.037.035-.036.035-.035.039-.032.038-.036.041-.031.041-.028.04-.029.043-.027.044-.023.045-.027.046-.021.045-.024.048-.018.047-.018.047-.016.048-.017.049-.013.049-.013.05-.009.049-.008.05-.006.051-.006.051-.003.051-.001h11.492V.133l-.011-.039zm24.729.725v6.78l.002.05.002.051.003.049.005.051.011.051.009.05.011.048.016.049.012.048.02.047.016.048.023.046.024.046.025.043.023.044.028.042.03.042.031.04.031.038.034.039.035.036.035.035.04.034.039.032.038.031.04.031.044.028.041.028.043.025.046.025.043.023.048.021.046.019.048.02.046.017.051.015.045.014.051.015.048.012.05.011.048.009.051.01.048.005.052.004.053.006.047.005.054.001.048.001h9.99V2.696h2.268v8.603H41.381l-.048-.003-.053-.001-.047-.002-.052-.004-.052-.006-.049-.003-.052-.003-.049-.009-.052-.004-.049-.007-.05-.009-.052-.007-.047-.008-.051-.008-.047-.01-.052-.012-.048-.009-.052-.012-.045-.013-.051-.013-.051-.012-.047-.014-.05-.015-.047-.015-.049-.016-.046-.015-.05-.018-.046-.016-.048-.018-.045-.02-.049-.019-.046-.02-.044-.02-.048-.022-.045-.021-.047-.023-.043-.023-.047-.022-.043-.024-.043-.025-.045-.027-.045-.025-.041-.024-.044-.028-.042-.028-.041-.028-.044-.028-.041-.029-.04-.031-.043-.028-.039-.032-.039-.032-.039-.031-.04-.033-.039-.032-.037-.034-.038-.034-.035-.034-.039-.036-.037-.035-.035-.036-.036-.036-.032-.039-.035-.035-.033-.037-.032-.04-.033-.038-.032-.04-.033-.038-.029-.041-.031-.04-.03-.042-.029-.04-.029-.043-.028-.043-.029-.04-.024-.045-.026-.043-.026-.042-.026-.045-.025-.045-.023-.045-.022-.046-.024-.043-.019-.045-.023-.047-.022-.046-.019-.047-.019-.047-.018-.048-.016-.046-.02-.049-.015-.047-.018-.047-.012-.049-.017-.048-.012-.05-.012-.048-.016-.049-.009-.049-.014-.049-.008-.051-.009-.049-.008-.05-.011-.05-.007-.05-.006-.05-.006-.049-.003-.052-.009-.05-.004-.051-.003-.049-.002-.051-.002-.051-.001-.052V.791"/><path d="M51.475 3.543v8.85a1.427 1.427 0 01-1.437 1.437h-6.522v2.27h6.522a3.697 3.697 0 003.073-1.634c.399-.591.637-1.31.634-2.074v-8.85h-2.27zm-22.64 3.931v-3.71a1.44 1.44 0 01.634-1.191c.234-.154.504-.245.808-.245h4.787V.058h-4.787A3.72 3.72 0 0027.2 1.693a3.695 3.695 0 00-.634 2.071v3.71h2.269z"/><path d="M26.56 5.861v1.592c0 .201-.043.388-.115.557a1.427 1.427 0 01-1.327.88h-5.656v2.272h5.656a3.713 3.713 0 003.712-3.708V5.861h-2.27zM37.579.042h2.262v2.342h-2.262zm25.118.08h-6.801l-.034.016v2.234l.01.038h4.466l.03-.03.016-.048.015-.048.016-.047.017-.048.019-.047.019-.047.019-.048L60.51 2l.021-.045.021-.045.019-.047.024-.046.025-.044.024-.046.026-.044.025-.043.027-.045.026-.042.027-.042.029-.043.028-.04.031-.043.028-.04.032-.04.031-.04.034-.04.033-.037.033-.039.033-.039.035-.035.034-.038.038-.037.034-.034.037-.037.039-.034.036-.033.042-.033.035-.034.04-.032.039-.029.041-.031.042-.032.04-.029.041-.03.043-.026.043-.03.042-.026.045-.027.043-.026.042-.025.046-.027.043-.022.047-.024.042-.022.048-.025.046-.02.046-.022.046-.019.047-.02.045-.019.049-.017.048-.018.048-.016.048-.016.049-.017.048-.013.051-.013z"/><path d="M68.427.122h-4.314l-.051.002-.052.001-.048.003-.05.001-.052.006-.052.004-.051.004-.049.005-.052.007-.049.007-.05.008-.051.008-.047.009-.052.01-.05.011-.048.012-.051.012-.048.014-.049.011-.049.014-.048.014-.049.015-.048.017-.05.015-.046.02-.048.017-.049.017-.044.019-.048.02-.046.021-.045.021-.046.024-.047.02-.045.023-.045.023-.046.026-.042.024-.044.027-.044.024-.042.029-.044.025-.042.028-.043.027-.042.031-.042.03-.04.031-.041.029-.04.031-.038.033-.04.03-.038.033-.038.033-.039.034-.038.035-.037.033-.036.038-.036.035-.035.036-.035.038-.035.036-.035.038-.032.037-.034.039-.031.039-.032.04-.032.04-.03.04-.031.043-.03.04-.028.041-.03.043-.026.041-.027.043-.028.042-.025.045-.027.044-.025.043-.025.046-.023.044-.024.046-.022.044-.021.046-.023.047-.02.046-.018.047-.02.046-.019.049-.019.048-.017.046-.015.048-.017.048-.017.048-.013.049-.013.048-.017.05-.012.049-.012.049-.01.05-.012.049-.009.05-.01.048-.008.053-.01.047-.006.053-.006.049-.007.051-.004.051-.004.049-.004.051-.004.05-.004.052-.002.05-.001.052v7.463l.044.004h2.231V3.785l.003-.051.003-.05.008-.05.005-.051.012-.05.01-.05.013-.048.017-.047.016-.048.018-.049.02-.047.022-.046.023-.043.026-.046.026-.043.026-.043.032-.04.03-.039.03-.041.036-.038.035-.037.037-.036.037-.033.037-.034.042-.032.038-.03.043-.029.041-.026.046-.026.043-.025.047-.022.046-.022.046-.02.048-.015.047-.019.048-.012.052-.013.047-.013.052-.006.049-.009.05-.005.051-.003.052-.001.05-.001h4.314V.162l-.011-.04zM102.71.003h-8.688v8.554h2.255V2.255h6.489l.049.002.052.002.047.003.052.005.052.006.048.006.05.007.048.012.05.009.048.012.05.013.046.016.049.016.047.016.047.019.046.02.046.021.045.022.046.026.042.024.041.028.043.028.041.03.037.032.04.031.039.034.035.035.035.037.033.037.032.038.03.041.029.041.028.042.023.045.024.041.025.045.024.047.014.047.021.047.012.047.014.05.013.048.009.05.009.049.006.052.004.048.002.05.001.051v7.344h2.226l.027-.022V3.611l-.003-.052v-.051l-.003-.051-.005-.048-.002-.051-.008-.05-.005-.051-.005-.05-.007-.049-.006-.049-.012-.05-.007-.048-.008-.051-.009-.05-.013-.049-.011-.048-.014-.05-.013-.047-.013-.05-.015-.047-.012-.049-.018-.046-.014-.049-.019-.047-.017-.046-.019-.049-.019-.047-.018-.045-.023-.046-.021-.046-.02-.046-.024-.043-.022-.046-.023-.044-.025-.045-.024-.044-.026-.041-.027-.044-.023-.044-.03-.041-.028-.043-.029-.042-.029-.039-.03-.042-.03-.04-.029-.04-.033-.038-.032-.041-.032-.036-.032-.04-.034-.038-.034-.036-.031-.037-.036-.036-.036-.036-.035-.036-.04-.035-.034-.034-.039-.034-.036-.033-.038-.033-.041-.033-.038-.03-.039-.032-.039-.03-.043-.03-.038-.029-.043-.03-.044-.028-.041-.027-.041-.029-.044-.027-.042-.024-.043-.026-.044-.027-.043-.023-.044-.025-.045-.021-.044-.023-.048-.023-.043-.021-.048-.022-.045-.02-.045-.019-.048-.02-.045-.019-.049-.019-.044-.016-.05-.017-.046-.015-.048-.015-.047-.016-.05-.015-.047-.014-.051-.012-.05-.014-.046-.011-.051-.012-.048-.01-.05-.011-.048-.01-.05-.008-.048-.008-.052-.008-.049-.007-.049-.008-.052-.005-.047-.007-.053-.003-.049-.005-.052-.005-.05-.003-.048-.003-.052-.001-.048-.001-.051-.001-.052-.001zM89.193 0h2.256v11.072h-2.256zm-4.66.134v.355-.231 1.72-.508 2.477-1.626 5.152l-.003.05-.001.051-.003.049-.006.052-.01.05-.009.05-.011.048-.016.05-.013.047-.019.048-.016.047-.023.046-.024.046-.025.044-.023.043-.028.043-.031.041-.03.04-.031.038-.034.039-.035.037-.035.034-.04.034-.038.032-.039.032-.04.03-.044.029-.041.027-.043.025-.046.026-.043.022-.048.022-.047.019-.047.018-.046.018-.051.015-.045.015-.051.015-.048.012-.051.009-.047.011-.051.009-.047.005-.054.005-.052.006-.048.004-.054.001-.047.002h-9.638l1.158 2.265h8.525l.051-.002.048-.002h.052l.048-.004.052-.002.052-.006.049-.004.052-.003.049-.008.052-.006.049-.006.049-.008.052-.008.048-.008.051-.008.047-.01.051-.011.049-.01.051-.012.047-.012.049-.013.052-.012.047-.015.05-.016.046-.014.05-.016.046-.015.05-.018.046-.016.048-.018.045-.021.048-.018.047-.02.044-.02.048-.021.044-.023.048-.022.043-.023.046-.022.044-.024.043-.024.045-.026.044-.026.042-.025.043-.027.043-.03.04-.027.046-.028.04-.029.039-.03.044-.029.039-.031.04-.032.038-.031.041-.033.038-.032.036-.034.039-.034.035-.035.039-.036.037-.035.034-.035.037-.037.032-.038.034-.037.034-.036.033-.04.032-.038.032-.041.032-.037.03-.041.031-.04.03-.041.028-.041.03-.043.028-.042.029-.041.023-.044.027-.044.026-.042.025-.044.026-.046.023-.044.022-.046.023-.044.021-.045.022-.047.023-.046.017-.046.02-.047.018-.05.017-.046.019-.048.014-.048.019-.046.012-.048.017-.05.012-.048.012-.049.016-.048.009-.05.013-.048.009-.052.008-.048.009-.051.011-.05.006-.049.007-.05.006-.05.003-.051.008-.05.005-.052.003-.049.001-.051.002-.051.002-.052V2.293v1.629-2.429.511V.283v.229-.406z"/><path d="M77.614 2.344h2.256v8.383h-2.256zM72.927.121h-2.214l-.027.022v7.395l.001.052.002.051.002.05.004.048.004.051.007.051.005.05.005.05.007.05.007.049.01.049.008.049.008.05.009.05.013.05.011.048.014.049.013.047.012.05.016.048.012.048.018.047.014.048.02.047.017.046.017.049.021.047.017.045.023.046.022.047.019.045.024.043.022.046.023.045.025.045.024.044.027.041.026.043.023.045.03.04.028.044.029.041.029.04.03.041.03.04.029.041.033.038.032.041.033.037.032.039.033.037.034.037.032.037.035.036.036.036.034.035.041.035.035.034.038.035.036.033.038.032.041.032.038.031.038.032.041.031.043.029.038.03.042.03.044.026.041.028.04.029.045.027.042.025.043.025.044.028.042.023.045.025.046.021.042.023.049.023.044.02.048.023.044.019.045.02.049.019.044.02.049.017.044.017.051.018.045.015.049.015.047.016.049.015.047.013.051.013.05.013.046.011.051.013.048.01.05.01.048.011.05.007.049.009.051.008.049.007.05.007.052.005.047.007.052.004.05.004.05.006.051.002.048.004.052.001.048.001.051.001.053.001h1.307l.043-2.253h-1.359l-.048-.002-.053-.001-.047-.004-.052-.004-.051-.006-.049-.006-.05-.008-.048-.011-.05-.009-.048-.012-.049-.014-.047-.015-.049-.016-.046-.017-.049-.018-.044-.02-.047-.021-.045-.023-.046-.025-.042-.024-.041-.028-.043-.029-.041-.029-.037-.032-.04-.032-.039-.034-.035-.035-.035-.036-.032-.038-.033-.038-.029-.04-.03-.041-.027-.043-.024-.044-.024-.042-.026-.045-.022-.046-.016-.047-.019-.048-.013-.047-.015-.049-.011-.048-.009-.05-.011-.05-.005-.051-.004-.049-.002-.049V.121z"/></g><g fill="#05070B"><path d="M151.189 9.27a.927.927 0 11-1.854 0 .927.927 0 011.854 0m-2.686-8.128h-9.246l-.041.001-.04.001-.041.002h-.041l-.041.005-.041.003-.04.004-.04.003-.04.006-.042.006-.04.007-.04.005-.041.008-.039.008-.04.007-.04.009-.04.009-.041.01-.039.011-.039.011-.04.012-.039.012-.038.013-.04.012-.038.014-.039.014-.037.015-.039.014-.037.016-.039.017-.035.016-.038.016-.037.018-.037.018-.037.019-.036.019-.035.019-.036.02-.035.02-.036.022-.033.022-.036.02-.034.023-.034.022-.033.025-.034.023-.033.024-.034.023-.03.026-.033.025-.033.025-.031.028-.03.026-.031.027-.032.029-.028.027-.029.028-.031.028-.028.029-.028.03-.028.03-.029.028-.027.033-.027.029-.025.033-.027.031-.025.032-.025.032-.025.033-.024.032-.023.035-.023.033-.023.034-.023.035-.02.034-.022.035-.021.035-.02.037-.02.033-.019.036-.019.038-.018.037-.017.037-.018.037-.016.035-.016.041-.015.036-.016.038-.013.038-.013.039-.013.039-.013.038-.013.04-.011.04-.009.04-.01.039-.01.04-.01.04-.006.04-.008.04-.006.04-.007.04-.005.041-.006.042-.003.04-.004.041-.002.039-.002.042-.003.04v3.108l.003.04.001.041.003.041.003.042.001.04.003.04.006.04.003.043.007.04.003.04.006.04.007.042.006.039.007.04.007.04.009.042.01.038.009.041.007.04.011.039.011.04.011.039.011.04.013.037.012.039.013.039.014.039.014.039.014.037.014.038.015.039.015.037.018.038.017.037.017.037.018.037.017.036.02.037.02.035.019.037.02.036.021.035.02.035.023.035.022.034.022.035.022.034.024.033.023.033.026.034.024.031.025.034.025.03.027.033.025.03.027.031.027.032.028.029.027.03.029.03.03.029.029.027.029.029.031.027.03.029.03.025.033.028.03.025.032.026.032.025.033.025.032.023.034.024.034.023.034.023.034.024.035.021.034.021.035.021.036.02.036.021.035.018.037.019.036.018.038.018.038.018.036.017.039.015.037.016.037.016.037.015.04.013.037.013.04.013.038.013.041.012.039.011.04.012.039.01.039.008.04.009.04.01.04.007.041.009.039.006.041.006.041.006.04.005.041.005.04.004.041.004.04.003.043.002.04.001.04.002h9.328l.02-.019v-1.81h-9.286l-.041-.003-.042-.001-.04-.005-.041-.005-.04-.008-.04-.007-.039-.01-.039-.013-.039-.013-.038-.013-.038-.017-.038-.018-.037-.018-.035-.02-.034-.022-.035-.022-.033-.024-.031-.026-.032-.026-.03-.027-.028-.029-.029-.03-.027-.03-.025-.031-.025-.033-.023-.035-.025-.032-.021-.035-.019-.036-.019-.035-.019-.037-.016-.037-.017-.04-.015-.037-.014-.039-.012-.038-.011-.04-.011-.039-.009-.04-.008-.04-.006-.041-.007-.04-.005-.04-.006-.041-.002-.04-.002-.042-.002-.041v-.576h8.566V4.7h-8.566v-.762l.002-.041.004-.04.008-.04.01-.04.011-.039.015-.038.015-.038.016-.037.02-.037.019-.035.023-.034.023-.034.025-.034.024-.031.028-.032.027-.03.029-.028.029-.028.031-.027.031-.028.032-.026.033-.023.034-.023.033-.022.036-.019.036-.021.038-.017.037-.019.038-.015.037-.014.04-.013.038-.014.039-.01.04-.011.04-.007.04-.007.041-.005.04-.005.041-.003h9.327l.001-.041V1.174l-.009-.032zm56.489 9.027l-.041.008-.041.004h-.086l-.049.008h-.082l-.049.008H200.3l-.045-.008h-.127l-.041-.008h-.086l-.045-.004-.044-.008h-.045l-.045-.005-.041-.007-.038-.004-.044-.004-.044-.012h-.042l-.041-.008-.044-.008-.041-.008-.041-.008-.045-.011-.041-.004-.041-.012-.045-.008-.041-.015-.041-.005-.045-.011-.041-.012-.041-.011-.041-.011-.045-.012-.037-.018-.041-.012-.041-.011-.044-.012-.037-.015-.037-.016-.041-.019-.041-.011-.045-.016-.037-.019-.037-.011-.041-.016-.038-.02-.04-.015-.038-.024-.044-.015-.038-.019-.036-.016-.041-.019-.033-.028-.038-.015-.037-.019-.036-.02-.041-.024-.032-.022-.038-.02-.036-.024-.034-.025-.037-.02-.037-.024-.037-.027-.032-.024-.033-.023-.037-.023-.037-.028-.028-.023-.037-.028-.033-.028-.033-.023-.033-.028-.037-.028-.029-.031-.032-.024-.033-.027-.033-.027-.028-.032-.032-.027-.033-.027-.017-.02-.024-.023-.028-.027-.037-.035-.025-.023-.033-.031-.025-.031-.028-.034-.029-.028-.025-.031-.028-.031-.028-.039-.025-.028-.028-.031-.025-.038-.028-.028-.025-.039-.025-.031-.025-.031-.025-.034-.029-.036-.02-.031-.021-.035-.025-.039-.021-.031-.024-.036-.021-.034-.02-.038-.02-.036-.021-.034-.021-.039-.024-.034-.021-.036-.02-.039-.016-.034-.017-.039-.021-.035-.016-.043-.021-.034-.016-.035-.017-.039-.012-.043-.016-.034-.012-.036-.016-.043-.017-.034-.011-.039-.012-.043-.012-.039-.021-.039-.008-.043-.012-.034-.008-.039-.013-.043-.011-.031-.008-.047-.012-.04-.008-.038-.008-.043-.008-.039-.012-.04-.005-.042-.011-.038-.005-.047-.004-.035-.013-.038v-.049l-.008-.035-.008-.047v-.035l-.004-.051-.005-.034-.008-.043v-.128l-.008-.039v-.969l.008-.04v-.124l.008-.043.005-.044.004-.034v-.043l.008-.039.004-.047.004-.035.005-.042.008-.043.008-.039.008-.039.008-.039.004-.042.012-.04.004-.038.012-.043.005-.043.016-.035.005-.042.016-.039.012-.04.008-.043.017-.034.012-.039.008-.043.015-.043.013-.035.016-.034.016-.04.008-.042.02-.035.017-.043.016-.035.017-.038.016-.035.021-.039.016-.039.017-.035.02-.038.021-.035.017-.039.02-.035.021-.031.02-.043.017-.034.021-.035.028-.031.021-.038.015-.035.025-.035.03-.035.02-.038.025-.031.021-.035.028-.035.025-.031.025-.031.025-.035.024-.031.029-.034.025-.028.028-.034.025-.035.032-.031.025-.031.028-.031.025-.034.033-.027.032-.028.025-.031.033-.034.025-.024.033-.031.016-.011.033-.031.029-.027.032-.028.033-.03.032-.031.029-.024.032-.031.037-.023.033-.023.033-.028.029-.027.032-.028.037-.02.038-.028.036-.023.033-.023.037-.028.032-.023.037-.02.038-.023.037-.023.037-.025.037-.018.037-.024.036-.019.038-.024.036-.019.038-.02.041-.023.037-.015.038-.02.037-.019.037-.015.044-.02.038-.02.041-.015.037-.019.041-.012.037-.019.045-.02.037-.011.041-.011.041-.019.037-.012.044-.011.041-.016.041-.015.037-.011.045-.012.041-.011.041-.012.045-.007.041-.012.041-.012.037-.007.045-.012.044-.011.038-.004.044-.008.041-.011.041-.004.049-.008.041-.011h.041l.044-.008.041-.005.041-.003.045-.008.045-.004.037-.003h.049l.041-.004.044-.005h.041l.041-.004h.049l.041-.008h4.427l.049.008h.086l.045.004h.037l.049.005.041.004.04.003.045.004.046.005.036.004.05.008h.041l.045.008.041.004.041.008.044.012.041.007.041.005.045.011.041.008.041.012.045.008.041.011.037.004.041.012.049.015.041.012.041.011.037.012.045.015.041.011.041.008.036.02.044.011.041.011.037.019.041.015.037.016.046.016.036.018.041.013.041.023.037.011.037.023.037.016.038.015.044.019.037.024.037.019.037.024.041.019.037.019.037.025.037.019.036.023.033.024.037.019.037.023.038.024.032.019.037.031.033.024.037.023.028.02.038.031.037.027.028.023.037.028.032.023.028.032.038.026.033.028.033.023.032.031.029.024.032.031.025.031.016.016.033.027.028.028.029.031.033.031.025.031.032.031.029.031.028.028.028.031.024.034.029.035.024.027.028.035.025.031.025.031.028.038.025.031.024.031.025.036.021.031.028.039.02.039.025.031.02.031.025.039.021.035.021.035.021.034.015.039.025.035.016.038.021.032.02.038.016.038.025.032.012.042.025.04.012.031.016.043.016.035.021.043.016.038.012.036.016.034.012.042.017.04.011.038.017.039.008.035.017.047.012.039.008.039.011.035.013.042.008.038.011.04.008.043.008.035.008.043.012.043.004.034.004.043.013.043.004.043.005.039.008.039.008.043v.043l.008.039.005.042.004.036v.085l.005.043v.038l.008.04v1.004l-.008.043v.043l-.005.035v.047l-.004.038v.043l-.005.043-.008.034-.005.047-.004.035-.012.047v.035l-.008.043-.008.043-.004.039-.012.039-.004.043-.016.042-.005.039-.011.039-.009.039-.011.039-.008.039-.016.042-.012.035-.005.043-.015.039-.024.036-.008.044-.012.039-.017.038-.016.039-.016.039-.012.039-.016.038-.017.039-.017.035-.021.039-.012.035-.021.034-.016.04-.021.034-.016.043-.021.035-.02.039-.021.034-.021.031-.025.043-.02.034-.016.031-.025.035-.021.038-.028.036-.02.035-.021.034-.025.035-.025.027-.025.039-.025.035-.025.031-.025.034-.032.031-.02.034-.034.032-.024.031-.024.041-.025.031-.028.031-.024.031-.033.031-.025.027-.033.031-.033.031-.024.031-.033.024-.033.035-.008.011-.033.032-.033.023-.028.031-.033.028-.032.027-.038.023-.024.031-.037.027-.033.025-.032.027-.038.028-.033.027-.036.019-.028.031-.032.024-.038.023-.037.02-.032.023-.038.028-.037.022-.041.024-.028.02-.038.023-.036.024-.041.019-.037.016-.037.027-.037.016-.037.024-.041.018-.037.02-.037.019-.044.016-.038.019-.037.016-.041.019-.037.011-.041.02-.045.011-.037.019-.037.016-.041.015-.041.015-.044.008-.038.02-.041.012-.041.015-.044.012-.038.011-.041.011-.041.011-.045.008-.041.015-.041.004-.045.011-.037.011-.045.012-.045.007-.037.008-.044.008-.045.008-.041.008-.041.004-.041.008-.045.008h-.041l-.049.004-.037.007-.045.005h-.038zm0-7.276h-.041l-.041-.008-.045-.008-.041-.005h-.131l-.049-.008h-4.377l-.045.008h-.082l-.049.005-.037.004-.044.004-.045.008-.041.003-.041.005-.045.008-.041.015h-.041l-.045.008-.045.015-.036.013-.045.007-.041.02-.041.004-.037.016-.041.011-.045.02-.036.015-.041.016-.037.015-.037.019-.044.016-.038.019-.041.023-.033.016-.037.019-.037.02-.037.024-.037.024-.037.023-.037.022-.037.028-.033.024-.037.024-.028.027-.033.024-.033.023-.037.031-.028.031-.028.023-.033.031-.008.008-.028.028-.029.031-.032.031-.028.031-.025.031-.033.028-.021.034-.033.035-.025.027-.02.04-.029.027-.02.039-.025.035-.025.031-.021.035-.02.04-.02.034-.021.035-.021.038-.02.036-.017.034-.016.043-.017.039-.016.038-.017.031-.016.043-.016.038-.005.037-.016.043-.012.042-.008.035-.012.044-.008.034-.008.043-.008.043-.012.039-.004.042-.005.036-.008.046-.008.039v.043l-.004.038v.04l-.008.043v.88l.008.042v.039l.004.042v.083l.008.039.008.038.008.043v.043l.012.035.008.043.008.044.008.034.012.043.008.038.017.04.012.042.017.038.008.04.016.031.021.043.016.039.012.035.021.035.016.043.02.031.021.042.02.035.016.039.02.039.029.027.02.035.025.039.025.027.025.039.021.036.033.03.025.031.02.035.033.031.029.031.028.028.028.031.033.031.029.032.008.003.028.031.033.023.032.031.033.023.028.031.037.024.033.028.038.027.032.023.032.02.038.027.036.024.038.019.037.024.037.015.037.028.037.015.041.024.037.015.041.016.036.02.038.019.036.016.045.015.041.016.041.008.036.016.045.015.041.012.04.011.045.012.041.008.041.011.037.008.049.008.041.008.045.004.041.007h.041l.044.005.041.008h.041l.049.008h.082l.045.004h4.292l.041-.004h.09l.041-.008h.041l.044-.008.045-.005.037-.007h.05l.041-.011.044-.005.041-.008.041-.008.041-.008.045-.016.037-.011.041-.012.041-.011.045-.012.041-.011.041-.011.037-.015.045-.016.037-.019.041-.02.041-.015.033-.012.04-.019.038-.019.037-.023.041-.024.037-.02.037-.018.037-.024.038-.024.037-.019.028-.027.038-.028.031-.023.038-.025.033-.027.033-.028.028-.031.038-.023.028-.028.033-.027.008-.008.029-.035.028-.023.033-.031.021-.031.032-.031.025-.031.033-.034.021-.031.028-.031.025-.035.028-.035.021-.031.025-.035.021-.035.025-.034.021-.039.02-.039.021-.031.021-.04.02-.034.017-.039.021-.035.015-.039.013-.043.016-.031.016-.042.008-.039.02-.039.013-.043.008-.035.012-.038.013-.04.008-.042.003-.039.013-.039.004-.043.012-.043.004-.039.008-.038.004-.044v-.042l.008-.047V5.109l-.008-.043v-.035l-.004-.043-.008-.043-.004-.034-.012-.044-.004-.038-.013-.047-.003-.036-.017-.038-.005-.039-.016-.043-.008-.039-.013-.043-.016-.034-.016-.043-.017-.035-.008-.039-.017-.035-.02-.039-.016-.038-.017-.035-.021-.039-.02-.035-.021-.038-.025-.035-.021-.035-.025-.038-.016-.032-.025-.034-.025-.035-.027-.035-.029-.035-.02-.031-.029-.031-.028-.034-.025-.031-.028-.031-.029-.031-.028-.035-.033-.023-.028-.032-.008-.004-.028-.031-.033-.028-.034-.028-.033-.028-.028-.028-.037-.027-.032-.024-.037-.031-.037-.024-.028-.019-.038-.024-.037-.023-.038-.023-.036-.02-.038-.024-.036-.019-.038-.019-.036-.024-.041-.015-.037-.016-.041-.019-.045-.011-.036-.02-.041-.019-.037-.012-.041-.011-.044-.016-.038-.011-.041-.012-.041-.011-.045-.012-.041-.011-.041-.008-.044-.011-.041-.004-.041-.008-.043-.008zm-36.508-1.165v5.479l.002.04v.04l.004.041.004.04.009.042.006.04.01.039.013.04.01.039.016.038.012.038.019.038.019.036.02.035.02.035.022.035.024.033.025.033.025.03.027.032.029.029.029.029.032.026.031.027.031.026.032.024.035.022.033.023.035.02.037.021.036.018.038.017.037.016.039.015.038.014.04.012.037.013.041.011.04.01.04.008.038.008.041.007.039.005.042.004.042.005.039.003.043.001.039.001h8.072V3.245h1.833v6.951h-9.941l-.042-.001-.038-.001-.042-.001-.039-.003-.042-.003-.042-.004-.039-.002-.043-.004-.039-.006-.042-.004-.04-.005-.04-.007-.042-.006-.039-.007-.04-.006-.038-.008-.043-.01-.039-.007-.041-.01-.037-.009-.04-.011-.042-.01-.038-.012-.041-.012-.037-.012-.04-.013-.037-.012-.041-.014-.037-.013-.039-.016-.036-.016-.04-.015-.036-.016-.036-.016-.039-.018-.036-.017-.038-.018-.035-.018-.038-.019-.034-.02-.036-.019-.036-.021-.035-.021-.034-.02-.036-.022-.034-.024-.033-.021-.036-.022-.033-.025-.032-.024-.034-.024-.032-.025-.032-.026-.031-.025-.033-.026-.031-.026-.03-.028-.031-.027-.028-.028-.032-.029-.03-.028-.028-.029-.029-.029-.025-.031-.029-.03-.026-.03-.026-.031-.027-.031-.026-.033-.026-.03-.024-.034-.025-.031-.024-.035-.024-.032-.023-.034-.023-.035-.023-.033-.019-.036-.022-.035-.022-.034-.019-.036-.02-.036-.019-.036-.018-.037-.019-.035-.016-.037-.018-.038-.019-.037-.014-.038-.016-.038-.014-.039-.014-.038-.016-.039-.012-.038-.014-.038-.01-.039-.014-.039-.009-.04-.01-.039-.013-.04-.007-.039-.012-.04-.007-.041-.006-.04-.007-.04-.008-.041-.006-.039-.006-.041-.004-.04-.002-.041-.007-.041-.004-.042-.002-.039-.002-.041-.001-.042-.001-.041V1.706"/><path d="M177.883 3.929v7.152a1.164 1.164 0 01-1.161 1.16h-5.269v1.835h5.269a2.987 2.987 0 002.484-1.321 2.983 2.983 0 00.512-1.675V3.929h-1.835zM159.59 7.106V4.108a1.175 1.175 0 01.513-.962c.189-.125.407-.198.652-.198h3.869V1.113h-3.869a2.987 2.987 0 00-2.486 1.322 2.984 2.984 0 00-.512 1.673v2.998h1.833z"/><path d="M157.751 5.802v1.287c0 .162-.035.313-.093.45a1.15 1.15 0 01-1.072.71h-4.57v1.836h4.57a2.99 2.99 0 002.486-1.322 2.966 2.966 0 00.513-1.675V5.802h-1.834zm34.632-1.812v3.215c0 .164-.032.31-.09.446a1.13 1.13 0 01-.44.502 1.52 1.52 0 01-.816.215h-8.103v1.834h8.103c.439 0 .858-.077 1.242-.224a3.041 3.041 0 001.405-1.083 2.93 2.93 0 00.533-1.69V3.99h-1.834z"/><path d="M181.846-6.543h1.835v16.746h-1.835zm2.791 9.485h6.585a1.17 1.17 0 01.965.514c.123.187.195.405.195.649v2.356h1.837V4.104a3.01 3.01 0 00-1.322-2.484 2.978 2.978 0 00-1.675-.512h-6.585v1.834zm37.829-.513a.21.21 0 00.043-.299l-.841-1.075a.228.228 0 00-.31-.044l-4.759 3.425a.323.323 0 01-.353 0l-4.762-3.425a.228.228 0 00-.31.044l-.841 1.075a.208.208 0 00.043.299l4.329 3.114c.097.07.097.184 0 .253l-4.329 3.114a.21.21 0 00-.043.299l.841 1.076a.229.229 0 00.31.044l4.762-3.425a.323.323 0 01.353 0l4.759 3.425c.097.07.237.05.31-.044l.841-1.076a.209.209 0 00-.043-.299l-4.329-3.114c-.096-.07-.096-.184 0-.253l4.329-3.114zm-53.983.563V1.1h-1.828v1.892m64.362-6.03h1.025v4.144h-1.025zm8.063 4.15l.002-.033v-2.444l-.002-.023v-.023l-.002-.022-.002-.023-.005-.023-.004-.022-.005-.023-.007-.022-.005-.021-.01-.022-.006-.021-.011-.021-.011-.02-.011-.02-.011-.02-.012-.019-.014-.019-.014-.018-.014-.017-.015-.018-.016-.016-.016-.016-.018-.015-.017-.015-.018-.014-.018-.013-.02-.013-.018-.013-.019-.011-.021-.011-.02-.011-.021-.009-.021-.01-.022-.008-.021-.008-.023-.007-.02-.006-.023-.007-.022-.006-.023-.004-.021-.004-.023-.004-.022-.003-.023-.002-.024-.003-.022-.001-.024-.001-.021-.001h-4.108v3.136h-1.025v-4.16h5.153l.022.001.023.001.023.001.022.001.024.001.023.002.022.002.024.002.022.003.023.003.022.003.022.003.024.004.022.003.022.004.022.005.023.005.022.004.023.006.021.005.023.006.023.006.021.006.023.007.021.007.022.007.02.007.023.008.021.007.022.008.02.01.022.008.021.009.02.009.021.01.02.01.023.009.019.011.021.01.019.011.02.011.02.012.02.011.019.012.02.012.018.013.019.012.021.013.018.013.018.014.019.013.018.014.018.014.017.015.019.015.017.014.016.015.018.016.015.015.019.017.016.015.016.016.016.017.014.017.017.017.014.016.015.018.015.017.014.019.015.017.013.019.015.017.013.019.013.019.013.019.013.019.013.018.01.02.013.02.011.019.012.02.011.02.01.021.01.02.011.02.009.021.01.021.011.02.007.022.01.021.007.022.008.02.009.023.007.021.008.021.005.022.008.022.005.022.006.023.007.022.004.021.006.022.004.024.004.022.003.023.005.023.004.021.002.023.003.022.002.023.004.024.001.023.002.022v.022l.002.024v2.528m.963-4.145h1.025v4.145h-1.025zm-17.069 4.146v-2.49l.001-.023v-.022l.002-.023.002-.023.006-.023.003-.023.005-.021.008-.022.005-.022.009-.022.007-.021.01-.021.012-.021.01-.019.012-.02.012-.019.013-.018.014-.019.014-.016.016-.018.016-.017.016-.016.017-.015.018-.015.018-.014.017-.013.02-.013.019-.013.019-.011.02-.012.02-.01.022-.01.02-.008.023-.008.02-.009.023-.007.021-.006.022-.007.022-.005.023-.005.022-.004.023-.004.021-.002.024-.003.024-.003.021-.001.025-.001.021-.001h4.108v3.137h1.025v-4.161h-5.129l-.024.001h-.024l-.021.001-.024.001-.021.001-.024.002-.023.002-.022.001-.024.002-.022.004-.023.001-.022.004-.023.003-.023.004-.022.004-.023.004-.021.004-.024.006-.021.003-.024.006-.021.005-.022.006-.024.006-.02.007-.023.006-.022.007-.022.007-.021.007-.022.008-.02.007-.023.009-.02.008-.022.01-.02.008-.02.009-.023.01-.019.01-.022.01-.019.01-.021.01-.02.011-.02.011-.02.012-.019.012-.019.011-.02.012-.02.014-.018.012-.02.012-.018.014-.019.013-.019.014-.017.013-.018.015-.018.014-.018.014-.018.015-.016.015-.017.016-.016.016-.018.016-.017.016-.015.016-.016.016-.015.017-.016.017-.015.016-.015.018-.014.018-.014.018-.015.017-.013.018-.015.019-.013.019-.013.017-.014.02-.012.02-.013.018-.011.02-.012.019-.011.019-.012.021-.011.02-.011.02-.01.021-.011.019-.008.021-.01.021-.011.021-.008.021-.009.021-.008.022-.008.021-.008.022-.007.022-.008.02-.006.023-.008.022-.004.022-.006.021-.007.023-.005.022-.006.022-.004.023-.003.022-.004.022-.005.023-.003.023-.003.023-.002.022-.002.023-.004.023-.002.023-.001.022-.001.023-.001.023v2.535"/><path d="M226-3.038h1.025v4.16H226z"/></g><g fill="#FFF"><path d="M159.65-100.73c.511-.586.709-1.473.709-1.473.408-1.287 1.368-1.794 3.821-1.794h14.095c2.452 0 3.413.507 3.82 1.794 0 0 .197.888.709 1.473.393.45 1.161.601 1.534.649.033.165.061.33.082.494v.003c.052.005.09.007.108.008l.544.028-.037-.543c-.415-6.153-.866-6.521-1.035-6.659-.171-.14-.687-.563-12.781-.554-1.929-.002-4.872.017-7.35.074-5.143.119-5.388.319-5.584.48-.17.139-.62.507-1.035 6.66l-.036.54.541-.024c.036-.002.139-.008.281-.024.021-.166.05-.332.083-.5.451-.065 1.178-.228 1.531-.632zm11.577 45.053a2.757 2.757 0 00-2.755 2.753 2.757 2.757 0 002.755 2.754 2.756 2.756 0 002.753-2.754 2.756 2.756 0 00-2.753-2.753zm.466 3.702c0 .272-.208.493-.465.493-.258 0-.465-.221-.465-.493v-1.896c0-.272.207-.493.465-.493.257 0 .465.221.465.493v1.896zm4.684-45.837h-10.3a.6.6 0 00-.599.599v10.3a.6.6 0 00.599.599h10.3a.6.6 0 00.599-.599v-10.3a.6.6 0 00-.599-.599zm-8.309 9.318a.824.824 0 110-1.648.824.824 0 010 1.648zm2.178.422a.715.715 0 110-1.43.715.715 0 010 1.43zm2.078 0a.714.714 0 110-1.428.714.714 0 010 1.428zm2.013-.422a.823.823 0 11-.001-1.647.823.823 0 01.001 1.647zm1.064-3.569h-8.347v-4.101h8.347v4.101z"/><path d="M176.68-101.344h-10.906c-2.042 0-3.239.744-3.372 2.094-.988 9.979 4.407 45.799 4.461 46.159.001.006.022.153.071.387l.009.067c.148 2.24 2.032 3.999 4.291 4.006 2.252-.007 4.13-1.766 4.277-4.006l.009-.067c.049-.234.07-.381.07-.382.055-.365 5.451-36.184 4.462-46.163-.133-1.351-1.331-2.095-3.372-2.095zm-5.453 51.949a3.533 3.533 0 01-3.529-3.528 3.532 3.532 0 013.529-3.527 3.53 3.53 0 013.527 3.527 3.53 3.53 0 01-3.527 3.528zm6.523-37.518c0 .757-.616 1.373-1.373 1.373h-10.3a1.375 1.375 0 01-1.373-1.373v-10.3c0-.757.616-1.373 1.373-1.373h10.3c.757 0 1.373.616 1.373 1.373v10.3z"/><path d="M184.421-99.584c-.357-.032-1.416-.18-1.981-.828-.543-.621-.773-1.503-.811-1.663-.301-.933-.932-1.439-3.354-1.439H164.18c-2.422 0-3.053.506-3.354 1.439-.038.16-.269 1.041-.811 1.662-.504.577-1.487.757-1.978.812l-.002.013c-.267 2.097-.168 51.371-.168 51.371s-.185.55 1.794.769c1.547.172 8.521.344 11.573.436 3.039-.092 10.014-.264 11.56-.436 1.978-.22 1.793-.769 1.793-.769s.099-49.232-.166-51.367zm-7.874 46.638c0 .002-.023.158-.074.407-.197 2.729-2.491 4.868-5.239 4.876h-.002c-2.754-.007-5.054-2.146-5.252-4.876-.051-.249-.073-.405-.074-.412-.223-1.473-5.467-36.295-4.467-46.394.088-.892.686-2.967 4.335-2.967h10.906c3.647 0 4.246 2.075 4.334 2.967 1.001 10.099-4.243 44.922-4.467 46.399zm-15.235 6.198s7.881.587 19.829 0c0 0-.226 1.121-1.615 1.388 0 0-12.388.374-16.927 0 .001 0-.973-.053-1.287-1.388z"/></g><path fill="none" stroke="#FFF" stroke-width="2" stroke-miterlimit="10" d="M-131.45-60.278l-12.762 12.696-12.238-12.696"/><path fill="#FFF" d="M-145.911-91.9c-5.958 0-11.91-.907-16.549-2.719l-.046-.02-.555-.29-.414-.358-.324-.412-.258-.465-.217-.544-.172-.605-.171-.899c-1.329-7.396-1.328-20.371.001-27.774l.136-.739.157-.601.207-.567.223-.442.27-.393.33-.346.409-.293.387-.183c4.178-1.711 10.218-2.685 16.603-2.685 6.383 0 12.423.973 16.571 2.67l.595.31.416.358.323.411.26.466.217.543.172.604.171.899c1.329 7.398 1.328 20.374-.002 27.773l-.136.741-.157.6-.207.568-.223.441-.269.392-.333.349-.407.29-.385.182c-4.67 1.826-10.65 2.738-16.623 2.738zm-16.069-3.881c9.035 3.52 23.17 3.516 32.193-.01l.286-.137.201-.151.174-.191.161-.242.149-.303.152-.419.13-.5.125-.692c1.308-7.279 1.309-20.047.002-27.322l-.157-.838-.15-.513-.166-.411-.177-.311-.192-.236-.221-.182-.369-.181c-3.964-1.62-9.83-2.559-16.056-2.559-6.228 0-12.095.94-16.097 2.579l-.297.141-.201.152-.174.192-.161.242-.15.305-.152.417-.129.5-.125.69c-1.307 7.282-1.309 20.05-.002 27.322l.157.838.15.514.166.411.176.309.193.238.221.182.34.166z"/><path fill="#FFF" d="M-150.651-118.879v15.719l12.351-7.859z"/><g fill="#024510"><path d="M-76.847-82.9c-8.662 0-17.313-1.319-24.058-3.953l-.067-.029-.808-.421-.602-.52-.471-.6-.376-.675-.315-.791-.251-.879-.249-1.307c-1.932-10.751-1.93-29.615.002-40.376l.198-1.074.228-.874.301-.824.324-.642.393-.572.48-.503.595-.427.563-.266c6.073-2.488 14.854-3.904 24.137-3.904 9.279 0 18.059 1.415 24.09 3.882l.865.451.604.52.469.597.377.678.315.79.251.878.249 1.307c1.932 10.754 1.93 29.618-.003 40.375l-.198 1.077-.228.873-.301.826-.324.641-.391.57-.484.507-.592.421-.559.265c-6.787 2.654-15.48 3.979-24.164 3.979zm-23.358-5.642c13.134 5.116 33.683 5.111 46.8-.014l.416-.199.292-.22.253-.278.234-.352.217-.441.22-.609.188-.727.182-1.006c1.901-10.582 1.903-29.143.004-39.718l-.228-1.218-.218-.746-.242-.597-.258-.452-.279-.344-.321-.265-.536-.263c-5.762-2.355-14.29-3.72-23.341-3.72-9.054 0-17.583 1.366-23.401 3.749l-.432.205-.292.22-.253.278-.234.352-.219.443-.22.607-.187.726-.182 1.003c-1.901 10.585-1.902 29.147-.003 39.719l.228 1.218.218.748.242.598.256.449.281.346.321.265.494.243z"/><path d="M-76.552-113.368c-1.419-.023-2.787.26-4.132.683-.161.051-.369.137-.493.078-.279-.135-.617-.298-.749-.546-.19-.358.157-.597.431-.782.708-.477 1.527-.633 2.348-.766 2.625-.423 5.191-.269 7.661.799.184.079.412.132.527.273.157.192.316.464.299.688-.011.141-.332.334-.536.366a1.946 1.946 0 01-.883-.078c-1.455-.482-2.949-.694-4.473-.715zm-.404-7.701a5.934 5.934 0 01-4.413-1.971 5.913 5.913 0 01-1.512-3.953 5.93 5.93 0 015.924-5.924c3.267 0 5.924 2.657 5.924 5.924s-2.656 5.924-5.923 5.924zm0-10.537a4.62 4.62 0 00-4.614 4.614c0 1.138.418 2.231 1.177 3.078a4.62 4.62 0 003.437 1.535 4.62 4.62 0 004.614-4.614 4.619 4.619 0 00-4.614-4.613z"/><path d="M-77.209-123.993c-1.797-.076-2.114-1.003-2.114-1.801v-.136h1.205v.136c0 .629.243.977.909 1.071v-1.971l-.433-.127c-1.11-.323-1.575-.782-1.575-1.64 0-.977.877-1.666 2.008-1.666v-.595h.465v.595c1.606 0 2.008.96 2.008 1.564v.119h-1.205v-.119c0-.45-.19-.782-.803-.833v1.878l.666.187c1.025.297 1.49.756 1.49 1.563 0 1.173-.845 1.716-2.156 1.776v.731h-.465v-.732zm0-5.405c-.444.034-.803.314-.803.85 0 .399.232.68.803.884v-1.734zm.465 4.674c.634-.076.951-.467.951-.85 0-.561-.306-.824-.951-.977v1.827zm-.465 7.761c-1.797-.076-2.114-1.003-2.114-1.801v-.136h1.205v.136c0 .629.243.977.909 1.071v-1.971l-.433-.127c-1.11-.323-1.575-.782-1.575-1.64 0-.977 4.481-.705 4.481-.102v.119h-1.205v-.119c0-.45-.19-.782-.803-.833v1.878l.666.187c1.025.297 1.49.756 1.49 1.563 0 1.173-.845 1.716-2.156 1.776v.731h-.465v-.732zm0-5.405c-.444.034-.803.314-.803.85 0 .399.232.68.803.884v-1.734zm.465 4.674c.634-.076.951-.467.951-.85 0-.561-.306-.824-.951-.977v1.827z"/><path d="M-76.956-114.039a5.93 5.93 0 01-5.924-5.924c0-1.461.537-2.865 1.511-3.952l.976.875a4.6 4.6 0 00-1.176 3.077 4.62 4.62 0 004.614 4.614 4.62 4.62 0 004.614-4.614 4.58 4.58 0 00-1.356-3.267l.925-.928a5.885 5.885 0 011.741 4.194 5.932 5.932 0 01-5.925 5.925z"/><path d="M-67.014-92.539c-.821 0-1.177-.68-1.311-.936a29.411 29.411 0 00-.248-.462 15.227 15.227 0 01-.641-1.274.9.9 0 00-.152.028l-.494.122c-.715.177-1.454.36-2.185.531-3.368.786-6.369.641-9.173-.442-.571-.221-1.179-.359-1.824-.506-.236-.054-.472-.108-.706-.166a.28.28 0 00-.092-.012c0 .003-.035.037-.085.139-.31.639-.664 1.267-1.054 1.866-.206.318-.662.65-1.132.669a35.9 35.9 0 01-1.994.008c-.22-.003-.441-.007-.661-.008-.684-.006-1.192-.458-1.262-1.126-.06-.561-.066-1.11-.064-1.526.001-.337.022-.67.042-.992.008-.138.017-.275.024-.413l.031-.618h.041c.004-.513.008-1.042-.016-1.552a.468.468 0 00-.097-.238l-.046-.048c-.841-.87-1.71-1.77-2.184-2.979-.165-.422-.25-.486-.7-.531-1.957-.197-3.266-1.407-3.787-3.501-.119-.478-.17-.957-.22-1.42l-.03-.275c-.039-.347.12-.812.493-.991.408-.195.862.022 1.068.216.238.223.473.478.7.756.285.35 1.094.553 1.553.422.424-3.396 2.196-6.236 5.27-8.441 1.508-1.082 3.23-1.898 5.266-2.493l.368 1.258c-1.891.554-3.484 1.306-4.87 2.3-2.839 2.037-4.392 4.541-4.747 7.655-.029.257-.178.622-.502.805-.886.501-2.353.262-3.15-.465.021.121.045.239.074.355.386 1.551 1.251 2.373 2.646 2.513.942.095 1.443.475 1.789 1.358.378.965 1.12 1.733 1.906 2.546l.046.048c.267.277.445.694.464 1.087.026.555.021 1.111.017 1.649-.002.205-.003.41-.003.616v.651l-.107.001a13.342 13.342 0 00.024 2.062l.645.008c.625.009 1.272.019 1.898-.006a.337.337 0 00.113-.079c.357-.549.684-1.129.97-1.719.341-.704.951-1.006 1.671-.828.226.056.454.108.682.16.662.151 1.345.307 2.005.562 2.55.986 5.299 1.113 8.402.388.723-.169 1.457-.351 2.168-.526l.495-.123c1.015-.25 1.481.283 1.693.774.161.374.358.736.566 1.12.086.159.173.319.257.479.084.16.129.214.149.233.706-.006 1.604-.004 2.524-.032a4.2 4.2 0 00.003-.254v-.134l.009-1.419c.006-1.016.012-2.067.028-3.102.005-.335.14-.695.35-.942a9.94 9.94 0 01.998-1.005c.122-.107.557-.449 1.049-.368.488.08.97.19 1.435.295.189.043.378.086.568.127.211.046.503.073.697-.057.194-.129.281-.408.319-.62.066-.364.126-.73.186-1.095l.041-.248c.061-.37.125-.739.188-1.109.151-.881.308-1.791.424-2.684.022-.167.079-.611-.609-.77l-.289-.069c-.249-.06-.485-.117-.718-.156-.739-.122-1.158-.518-1.36-1.283-.192-.73-.52-1.433-.867-2.177a62.119 62.119 0 01-.173-.373c-.174-.379-.341-.895-.081-1.533.242-.594.45-1.199.62-1.798a.608.608 0 00.026-.16.565.565 0 00-.171-.009c-.335.022-.67.049-1.004.077-.516.043-1.05.087-1.582.108-.421.017-.859-.093-1.173-.295a23.063 23.063 0 00-6.35-2.824l.349-1.263a24.379 24.379 0 016.711 2.985.799.799 0 00.41.087c.505-.021 1.025-.064 1.528-.105.342-.028.685-.056 1.028-.079.547-.036 1.005.137 1.286.485.28.346.353.825.205 1.348a18.693 18.693 0 01-.667 1.935c-.054.132-.066.223.058.491l.17.367c.356.764.724 1.553.947 2.397.075.286.093.288.306.323.282.047.552.112.813.175l.276.066c1.121.259 1.754 1.129 1.613 2.216-.119.92-.278 1.844-.432 2.738-.063.367-.126.733-.187 1.1l-.041.247c-.061.373-.122.746-.19 1.119-.153.834-.563 1.262-.881 1.474-.318.212-.871.427-1.702.248-.194-.042-.387-.086-.581-.13-.436-.099-.849-.193-1.267-.265a.512.512 0 00-.063.044 8.582 8.582 0 00-.867.873.286.286 0 00-.036.11c-.016 1.028-.022 2.076-.028 3.089l-.009 1.422v.121c.001.228.001.487-.064.756-.079.326-.44.785-.912.802a77.54 77.54 0 01-2.86.044zm-19.181-1.748z"/></g><path d="M24.146-145.436v42.557m21.278-21.278H2.867" fill="none" stroke="#FFF" stroke-miterlimit="10"/></svg>